Ostrich Sans Heavy.ufo
<glyph name="dollar" format="1">
  <advance width="398"/>
  <unicode hex="0024"/>
  <outline>
    <contour>
      <point x="215" y="6" type="line"/>
      <point x="290" y="22"/>
      <point x="331" y="79"/>
      <point x="331" y="173" type="curve" smooth="yes"/>
      <point x="331" y="270"/>
      <point x="264" y="321"/>
      <point x="198" y="372" type="curve"/>
      <point x="199" y="372" type="line"/>
      <point x="150" y="410"/>
      <point x="101" y="449"/>
      <point x="101" y="500" type="curve" smooth="yes"/>
      <point x="101" y="552"/>
      <point x="124" y="575"/>
      <point x="166" y="575" type="curve" smooth="yes"/>
      <point x="210" y="575"/>
      <point x="231" y="545"/>
      <point x="231" y="479" type="curve" smooth="yes"/>
      <point x="231" y="465" type="line" smooth="yes"/>
      <point x="231" y="445"/>
      <point x="247" y="429"/>
      <point x="267" y="429" type="curve" smooth="yes"/>
      <point x="295" y="429" type="line" smooth="yes"/>
      <point x="315" y="429"/>
      <point x="331" y="445"/>
      <point x="331" y="465" type="curve" smooth="yes"/>
      <point x="331" y="479" type="line" smooth="yes"/>
      <point x="331" y="585"/>
      <point x="291" y="651"/>
      <point x="215" y="669" type="curve"/>
      <point x="215" y="708" type="line" smooth="yes"/>
      <point x="215" y="728"/>
      <point x="198" y="744"/>
      <point x="179" y="744" type="curve" smooth="yes"/>
      <point x="151" y="744" type="line" smooth="yes"/>
      <point x="131" y="744"/>
      <point x="115" y="728"/>
      <point x="115" y="708" type="curve" smooth="yes"/>
      <point x="115" y="669" type="line"/>
      <point x="41" y="651"/>
      <point x="1" y="590"/>
      <point x="1" y="497" type="curve" smooth="yes"/>
      <point x="1" y="398"/>
      <point x="70" y="344"/>
      <point x="136" y="292" type="curve"/>
      <point x="136" y="293" type="line"/>
      <point x="185" y="255"/>
      <point x="231" y="218"/>
      <point x="231" y="171" type="curve" smooth="yes"/>
      <point x="231" y="118"/>
      <point x="208" y="100"/>
      <point x="166" y="100" type="curve" smooth="yes"/>
      <point x="152" y="100"/>
      <point x="135" y="102"/>
      <point x="124" y="113" type="curve"/>
      <point x="110" y="125"/>
      <point x="101" y="148"/>
      <point x="101" y="196" type="curve" smooth="yes"/>
      <point x="101" y="209" type="line" smooth="yes"/>
      <point x="101" y="229"/>
      <point x="84" y="245"/>
      <point x="65" y="245" type="curve" smooth="yes"/>
      <point x="37" y="245" type="line" smooth="yes"/>
      <point x="17" y="245"/>
      <point x="1" y="229"/>
      <point x="1" y="209" type="curve" smooth="yes"/>
      <point x="1" y="196" type="line" smooth="yes"/>
      <point x="1" y="87"/>
      <point x="39" y="24"/>
      <point x="115" y="6" type="curve"/>
      <point x="115" y="-29" type="line" smooth="yes"/>
      <point x="115" y="-49"/>
      <point x="131" y="-65"/>
      <point x="151" y="-65" type="curve" smooth="yes"/>
      <point x="179" y="-65" type="line" smooth="yes"/>
      <point x="198" y="-65"/>
      <point x="215" y="-49"/>
      <point x="215" y="-29" type="curve" smooth="yes"/>
    </contour>
  </outline>
</glyph>
<glyph name="parenleft" format="1">
  <advance width="216"/>
  <unicode hex="0028"/>
  <outline>
    <contour>
      <point x="160" y="44" type="line" smooth="yes"/>
      <point x="170" y="61"/>
      <point x="165" y="82"/>
      <point x="148" y="92" type="curve"/>
      <point x="148" y="93"/>
      <point x="146" y="94"/>
      <point x="145" y="96" type="curve"/>
      <point x="140" y="101"/>
      <point x="134" y="112"/>
      <point x="126" y="128" type="curve"/>
      <point x="111" y="162"/>
      <point x="93" y="227"/>
      <point x="93" y="335" type="curve" smooth="yes"/>
      <point x="93" y="446"/>
      <point x="111" y="510"/>
      <point x="127" y="545" type="curve"/>
      <point x="126" y="544" type="line"/>
      <point x="137" y="565" type="line" smooth="yes"/>
      <point x="143" y="576"/>
      <point x="148" y="581"/>
      <point x="154" y="586" type="curve"/>
      <point x="166" y="597"/>
      <point x="170" y="618"/>
      <point x="160" y="632" type="curve" smooth="yes"/>
      <point x="144" y="656" type="line" smooth="yes"/>
      <point x="131" y="676"/>
      <point x="106" y="678"/>
      <point x="89" y="661" type="curve"/>
      <point x="74" y="648" type="line"/>
      <point x="62" y="636"/>
      <point x="48" y="616"/>
      <point x="38" y="591" type="curve"/>
      <point x="39" y="592" type="line"/>
      <point x="16" y="543"/>
      <point x="-6" y="462"/>
      <point x="-6" y="335" type="curve" smooth="yes"/>
      <point x="-6" y="229"/>
      <point x="8" y="144"/>
      <point x="39" y="82" type="curve"/>
      <point x="38" y="83" type="line"/>
      <point x="50" y="56"/>
      <point x="64" y="36"/>
      <point x="78" y="24" type="curve" smooth="yes"/>
      <point x="90" y="13" type="line"/>
      <point x="108" y="-5"/>
      <point x="134" y="-2"/>
      <point x="147" y="21" type="curve" smooth="yes"/>
    </contour>
  </outline>
</glyph>
<glyph name="parenright" format="1">
  <advance width="208"/>
  <unicode hex="0029"/>
  <outline>
    <contour>
      <point x="90" y="26" type="line"/>
      <point x="90" y="25" type="line"/>
      <point x="101" y="36"/>
      <point x="114" y="55"/>
      <point x="127" y="83" type="curve" smooth="yes"/>
      <point x="150" y="131"/>
      <point x="172" y="212"/>
      <point x="172" y="339" type="curve" smooth="yes"/>
      <point x="172" y="445"/>
      <point x="158" y="530"/>
      <point x="128" y="592" type="curve" smooth="yes"/>
      <point x="116" y="618"/>
      <point x="103" y="638"/>
      <point x="90" y="650" type="curve" smooth="yes"/>
      <point x="74" y="664" type="line" smooth="yes"/>
      <point x="56" y="679"/>
      <point x="31" y="674"/>
      <point x="19" y="653" type="curve" smooth="yes"/>
      <point x="5" y="629" type="line" smooth="yes"/>
      <point x="-2" y="617"/>
      <point x="1" y="597"/>
      <point x="11" y="587" type="curve"/>
      <point x="17" y="582" type="line"/>
      <point x="23" y="577" type="line"/>
      <point x="26" y="573"/>
      <point x="32" y="563"/>
      <point x="40" y="546" type="curve"/>
      <point x="40" y="547" type="line"/>
      <point x="47" y="532"/>
      <point x="55" y="506"/>
      <point x="61" y="474" type="curve" smooth="yes"/>
      <point x="67" y="441"/>
      <point x="72" y="395"/>
      <point x="72" y="339" type="curve" smooth="yes"/>
      <point x="72" y="227"/>
      <point x="54" y="163"/>
      <point x="39" y="130" type="curve"/>
      <point x="28" y="109" type="line"/>
      <point x="21" y="98"/>
      <point x="15" y="91"/>
      <point x="10" y="87" type="curve"/>
      <point x="0" y="77"/>
      <point x="-3" y="57"/>
      <point x="4" y="45" type="curve" smooth="yes"/>
      <point x="19" y="21" type="line"/>
      <point x="32" y="-2"/>
      <point x="58" y="-5"/>
      <point x="76" y="13" type="curve"/>
    </contour>
  </outline>
</glyph>
<glyph name="asterisk" format="1">
  <advance width="345"/>
  <unicode hex="002A"/>
  <outline>
    <contour>
      <point x="196" y="594" type="line"/>
      <point x="196" y="635" type="line" smooth="yes"/>
      <point x="196" y="654"/>
      <point x="180" y="670"/>
      <point x="160" y="670" type="curve" smooth="yes"/>
      <point x="133" y="670" type="line" smooth="yes"/>
      <point x="113" y="670"/>
      <point x="97" y="654"/>
      <point x="97" y="635" type="curve" smooth="yes"/>
      <point x="97" y="594" type="line"/>
      <point x="58" y="608" type="line" smooth="yes"/>
      <point x="39" y="615"/>
      <point x="18" y="604"/>
      <point x="12" y="585" type="curve"/>
      <point x="2" y="558" type="line"/>
      <point x="-3" y="540"/>
      <point x="6" y="521"/>
      <point x="23" y="515" type="curve" smooth="yes"/>
      <point x="61" y="501" type="line"/>
      <point x="31" y="467" type="line" smooth="yes"/>
      <point x="17" y="451"/>
      <point x="19" y="429"/>
      <point x="34" y="416" type="curve" smooth="yes"/>
      <point x="56" y="397" type="line"/>
      <point x="70" y="384"/>
      <point x="92" y="385"/>
      <point x="106" y="400" type="curve"/>
      <point x="146" y="446" type="line"/>
      <point x="187" y="400" type="line" smooth="yes"/>
      <point x="200" y="385"/>
      <point x="223" y="384"/>
      <point x="237" y="397" type="curve"/>
      <point x="259" y="416" type="line" smooth="yes"/>
      <point x="274" y="429"/>
      <point x="276" y="451"/>
      <point x="262" y="467" type="curve"/>
      <point x="251" y="478"/>
      <point x="242" y="490"/>
      <point x="232" y="501" type="curve"/>
      <point x="269" y="515" type="line"/>
      <point x="287" y="521"/>
      <point x="296" y="540"/>
      <point x="291" y="558" type="curve"/>
      <point x="281" y="585" type="line"/>
      <point x="275" y="605"/>
      <point x="254" y="615"/>
      <point x="234" y="608" type="curve" smooth="yes"/>
    </contour>
  </outline>
</glyph>
<glyph name="plus" format="1">
  <advance width="434"/>
  <unicode hex="002B"/>
  <outline>
    <contour>
      <point x="235" y="479" type="line" smooth="yes"/>
      <point x="235" y="499"/>
      <point x="219" y="515"/>
      <point x="199" y="515" type="curve" smooth="yes"/>
      <point x="170" y="515" type="line" smooth="yes"/>
      <point x="151" y="515"/>
      <point x="135" y="499"/>
      <point x="135" y="479" type="curve" smooth="yes"/>
      <point x="135" y="384" type="line"/>
      <point x="40" y="384" type="line" smooth="yes"/>
      <point x="20" y="384"/>
      <point x="4" y="368"/>
      <point x="4" y="349" type="curve" smooth="yes"/>
      <point x="4" y="320" type="line" smooth="yes"/>
      <point x="4" y="300"/>
      <point x="20" y="284"/>
      <point x="40" y="284" type="curve" smooth="yes"/>
      <point x="135" y="284" type="line"/>
      <point x="135" y="190" type="line" smooth="yes"/>
      <point x="135" y="170"/>
      <point x="151" y="154"/>
      <point x="170" y="154" type="curve" smooth="yes"/>
      <point x="199" y="154" type="line" smooth="yes"/>
      <point x="219" y="154"/>
      <point x="235" y="170"/>
      <point x="235" y="190" type="curve" smooth="yes"/>
      <point x="235" y="284" type="line"/>
      <point x="330" y="284" type="line" smooth="yes"/>
      <point x="349" y="284"/>
      <point x="365" y="300"/>
      <point x="365" y="320" type="curve" smooth="yes"/>
      <point x="365" y="349" type="line" smooth="yes"/>
      <point x="365" y="368"/>
      <point x="349" y="384"/>
      <point x="330" y="384" type="curve" smooth="yes"/>
      <point x="235" y="384" type="line"/>
    </contour>
  </outline>
</glyph>
<glyph name="one" format="1">
  <advance width="244"/>
  <unicode hex="0031"/>
  <outline>
    <contour>
      <point x="29" y="474" type="line" smooth="yes"/>
      <point x="45" y="460"/>
      <point x="69" y="464"/>
      <point x="81" y="480" type="curve"/>
      <point x="86" y="485" type="line"/>
      <point x="86" y="36" type="line" smooth="yes"/>
      <point x="86" y="16"/>
      <point x="102" y="0"/>
      <point x="121" y="0" type="curve" smooth="yes"/>
      <point x="150" y="0" type="line" smooth="yes"/>
      <point x="170" y="0"/>
      <point x="186" y="16"/>
      <point x="186" y="36" type="curve" smooth="yes"/>
      <point x="186" y="638" type="line" smooth="yes"/>
      <point x="186" y="658"/>
      <point x="170" y="674"/>
      <point x="150" y="674" type="curve" smooth="yes"/>
      <point x="122" y="674" type="line" smooth="yes"/>
      <point x="114" y="674"/>
      <point x="98" y="666"/>
      <point x="94" y="660" type="curve"/>
      <point x="2" y="541" type="line" smooth="yes"/>
      <point x="-10" y="525"/>
      <point x="-6" y="502"/>
      <point x="10" y="491" type="curve"/>
    </contour>
  </outline>
</glyph>
<glyph name="seven" format="1">
  <advance width="426"/>
  <unicode hex="0037"/>
  <outline>
    <contour>
      <point x="368" y="604" type="line"/>
      <point x="368" y="638" type="line" smooth="yes"/>
      <point x="368" y="658"/>
      <point x="352" y="674"/>
      <point x="332" y="674" type="curve" smooth="yes"/>
      <point x="34" y="674" type="line" smooth="yes"/>
      <point x="15" y="674"/>
      <point x="-1" y="658"/>
      <point x="-1" y="638" type="curve" smooth="yes"/>
      <point x="-1" y="611" type="line" smooth="yes"/>
      <point x="-1" y="591"/>
      <point x="15" y="575"/>
      <point x="34" y="575" type="curve" smooth="yes"/>
      <point x="248" y="575" type="line"/>
      <point x="28" y="49" type="line" smooth="yes"/>
      <point x="18" y="24"/>
      <point x="34" y="0"/>
      <point x="61" y="0" type="curve" smooth="yes"/>
      <point x="92" y="0" type="line" smooth="yes"/>
      <point x="104" y="0"/>
      <point x="120" y="11"/>
      <point x="125" y="22" type="curve" smooth="yes"/>
    </contour>
  </outline>
</glyph>
<glyph name="nine" format="1">
  <advance width="358"/>
  <unicode hex="0039"/>
  <outline>
    <contour>
      <point x="294" y="497" type="line" smooth="yes"/>
      <point x="294" y="609"/>
      <point x="239" y="674"/>
      <point x="146" y="674" type="curve" smooth="yes"/>
      <point x="96" y="674"/>
      <point x="58" y="651"/>
      <point x="31" y="606" type="curve" smooth="yes"/>
      <point x="10" y="572"/>
      <point x="-1" y="527"/>
      <point x="-1" y="477" type="curve" smooth="yes"/>
      <point x="-1" y="421" type="line" smooth="yes"/>
      <point x="-1" y="304"/>
      <point x="39" y="228"/>
      <point x="134" y="228" type="curve" smooth="yes"/>
      <point x="159" y="228"/>
      <point x="184" y="238"/>
      <point x="193" y="255" type="curve"/>
      <point x="193" y="253" type="line" smooth="yes"/>
      <point x="193" y="224"/>
      <point x="195" y="166"/>
      <point x="185" y="136" type="curve" smooth="yes"/>
      <point x="178" y="115"/>
      <point x="163" y="99"/>
      <point x="146" y="99" type="curve" smooth="yes"/>
      <point x="116" y="99"/>
      <point x="99" y="124"/>
      <point x="99" y="171" type="curve" smooth="yes"/>
      <point x="99" y="172" type="line" smooth="yes"/>
      <point x="99" y="191"/>
      <point x="83" y="208"/>
      <point x="63" y="208" type="curve" smooth="yes"/>
      <point x="34" y="208" type="line" smooth="yes"/>
      <point x="15" y="208"/>
      <point x="-1" y="191"/>
      <point x="-1" y="172" type="curve" smooth="yes"/>
      <point x="-1" y="171" type="line" smooth="yes"/>
      <point x="-1" y="67"/>
      <point x="48" y="0"/>
      <point x="146" y="0" type="curve" smooth="yes"/>
      <point x="175" y="0"/>
      <point x="214" y="9"/>
      <point x="245" y="47" type="curve" smooth="yes"/>
      <point x="272" y="80"/>
      <point x="294" y="138"/>
      <point x="294" y="233" type="curve" smooth="yes"/>
    </contour>
    <contour>
      <point x="193" y="420" type="line" smooth="yes"/>
      <point x="193" y="364"/>
      <point x="177" y="327"/>
      <point x="146" y="327" type="curve" smooth="yes"/>
      <point x="115" y="327"/>
      <point x="99" y="356"/>
      <point x="99" y="421" type="curve" smooth="yes"/>
      <point x="99" y="477" type="line" smooth="yes"/>
      <point x="99" y="493"/>
      <point x="101" y="510"/>
      <point x="103" y="523" type="curve"/>
      <point x="108" y="544"/>
      <point x="119" y="575"/>
      <point x="146" y="575" type="curve" smooth="yes"/>
      <point x="165" y="575"/>
      <point x="177" y="566"/>
      <point x="183" y="553" type="curve"/>
      <point x="192" y="536"/>
      <point x="193" y="514"/>
      <point x="193" y="497" type="curve" smooth="yes"/>
    </contour>
  </outline>
</glyph>
<glyph name="semicolon" format="1">
  <advance width="147"/>
  <unicode hex="003B"/>
  <outline>
    <contour>
      <point x="98" y="495" type="line" smooth="yes"/>
      <point x="98" y="515"/>
      <point x="81" y="531"/>
      <point x="62" y="531" type="curve" smooth="yes"/>
      <point x="33" y="531" type="line" smooth="yes"/>
      <point x="13" y="531"/>
      <point x="-3" y="515"/>
      <point x="-3" y="495" type="curve" smooth="yes"/>
      <point x="-3" y="427" type="line" smooth="yes"/>
      <point x="-3" y="408"/>
      <point x="13" y="392"/>
      <point x="33" y="392" type="curve" smooth="yes"/>
      <point x="62" y="392" type="line" smooth="yes"/>
      <point x="81" y="392"/>
      <point x="98" y="408"/>
      <point x="98" y="427" type="curve" smooth="yes"/>
    </contour>
    <contour>
      <point x="33" y="285" type="line" smooth="yes"/>
      <point x="13" y="285"/>
      <point x="-3" y="269"/>
      <point x="-3" y="249" type="curve" smooth="yes"/>
      <point x="-3" y="149" type="line" smooth="yes"/>
      <point x="-3" y="130"/>
      <point x="13" y="114"/>
      <point x="33" y="114" type="curve" smooth="yes"/>
      <point x="62" y="114" type="line" smooth="yes"/>
      <point x="81" y="114"/>
      <point x="98" y="130"/>
      <point x="98" y="149" type="curve" smooth="yes"/>
      <point x="98" y="249" type="line" smooth="yes"/>
      <point x="98" y="269"/>
      <point x="81" y="285"/>
      <point x="62" y="285" type="curve" smooth="yes"/>
    </contour>
  </outline>
</glyph>
<glyph name="less" format="1">
  <advance width="292"/>
  <unicode hex="003C"/>
  <outline>
    <contour>
      <point x="196" y="189" type="line" smooth="yes"/>
      <point x="230" y="189"/>
      <point x="245" y="225"/>
      <point x="221" y="249" type="curve" smooth="yes"/>
      <point x="112" y="358" type="line"/>
      <point x="221" y="468" type="line" smooth="yes"/>
      <point x="245" y="492"/>
      <point x="230" y="528"/>
      <point x="196" y="528" type="curve" smooth="yes"/>
      <point x="170" y="528" type="line"/>
      <point x="169" y="528" type="line" smooth="yes"/>
      <point x="135" y="528"/>
      <point x="-3" y="383"/>
      <point x="-3" y="383" type="curve"/>
      <point x="-17" y="369"/>
      <point x="-17" y="348"/>
      <point x="-3" y="333" type="curve" smooth="yes"/>
      <point x="17" y="313" type="line"/>
      <point x="17" y="313"/>
      <point x="134" y="189"/>
      <point x="163" y="189" type="curve" smooth="yes"/>
      <point x="164" y="189" type="line"/>
    </contour>
  </outline>
</glyph>
<glyph name="question" format="1">
  <advance width="353"/>
  <unicode hex="003F"/>
  <outline>
    <contour>
      <point x="178" y="282"/>
      <point x="203" y="271"/>
      <point x="268" y="375" type="curve" smooth="yes"/>
      <point x="284" y="402"/>
      <point x="299" y="441"/>
      <point x="299" y="489" type="curve" smooth="yes"/>
      <point x="299" y="538"/>
      <point x="287" y="579"/>
      <point x="266" y="613" type="curve"/>
      <point x="237" y="654"/>
      <point x="198" y="675"/>
      <point x="152" y="675" type="curve" smooth="yes"/>
      <point x="53" y="675"/>
      <point x="4" y="603"/>
      <point x="4" y="484" type="curve" smooth="yes"/>
      <point x="4" y="471" type="line" smooth="yes"/>
      <point x="4" y="451"/>
      <point x="20" y="435"/>
      <point x="40" y="435" type="curve" smooth="yes"/>
      <point x="68" y="435" type="line" smooth="yes"/>
      <point x="88" y="435"/>
      <point x="104" y="451"/>
      <point x="104" y="471" type="curve" smooth="yes"/>
      <point x="104" y="484" type="line" smooth="yes"/>
      <point x="104" y="520"/>
      <point x="110" y="546"/>
      <point x="120" y="560" type="curve"/>
      <point x="127" y="571"/>
      <point x="137" y="576"/>
      <point x="152" y="576" type="curve" smooth="yes"/>
      <point x="165" y="576"/>
      <point x="176" y="569"/>
      <point x="184" y="558" type="curve"/>
      <point x="194" y="543"/>
      <point x="199" y="518"/>
      <point x="199" y="489" type="curve" smooth="yes"/>
      <point x="199" y="460"/>
      <point x="192" y="441"/>
      <point x="183" y="425" type="curve"/>
      <point x="173" y="409"/>
      <point x="164" y="395"/>
      <point x="154" y="381" type="curve"/>
      <point x="125" y="336"/>
      <point x="78" y="287"/>
      <point x="78" y="192" type="curve" smooth="yes"/>
      <point x="78" y="175" type="line" smooth="yes"/>
      <point x="78" y="155"/>
      <point x="94" y="139"/>
      <point x="114" y="139" type="curve" smooth="yes"/>
      <point x="142" y="139" type="line" smooth="yes"/>
      <point x="161" y="139"/>
      <point x="178" y="155"/>
      <point x="178" y="175" type="curve" smooth="yes"/>
    </contour>
    <contour>
      <point x="178" y="75" type="line" smooth="yes"/>
      <point x="178" y="95"/>
      <point x="161" y="111"/>
      <point x="142" y="111" type="curve" smooth="yes"/>
      <point x="113" y="111" type="line" smooth="yes"/>
      <point x="94" y="111"/>
      <point x="77" y="95"/>
      <point x="77" y="75" type="curve" smooth="yes"/>
      <point x="77" y="37" type="line" smooth="yes"/>
      <point x="77" y="17"/>
      <point x="94" y="1"/>
      <point x="113" y="1" type="curve" smooth="yes"/>
      <point x="142" y="1" type="line" smooth="yes"/>
      <point x="161" y="1"/>
      <point x="178" y="17"/>
      <point x="178" y="37" type="curve" smooth="yes"/>
    </contour>
  </outline>
</glyph>
<glyph name="at" format="1">
  <advance width="697"/>
  <unicode hex="0040"/>
  <outline>
    <contour>
      <point x="500" y="156" type="line" smooth="yes"/>
      <point x="458" y="125"/>
      <point x="401" y="108"/>
      <point x="345" y="105" type="curve" smooth="yes"/>
      <point x="291" y="102"/>
      <point x="232" y="113"/>
      <point x="190" y="139" type="curve" smooth="yes"/>
      <point x="134" y="173"/>
      <point x="106" y="227"/>
      <point x="106" y="297" type="curve" smooth="yes"/>
      <point x="106" y="309"/>
      <point x="107" y="325"/>
      <point x="110" y="343" type="curve" smooth="yes"/>
      <point x="120" y="404"/>
      <point x="146" y="450"/>
      <point x="179" y="481" type="curve" smooth="yes"/>
      <point x="212" y="513"/>
      <point x="250" y="531"/>
      <point x="288" y="539" type="curve"/>
      <point x="287" y="539" type="line"/>
      <point x="302" y="542"/>
      <point x="317" y="543"/>
      <point x="333" y="543" type="curve" smooth="yes"/>
      <point x="355" y="543"/>
      <point x="377" y="540"/>
      <point x="399" y="532" type="curve" smooth="yes"/>
      <point x="432" y="520"/>
      <point x="460" y="500"/>
      <point x="477" y="471" type="curve" smooth="yes"/>
      <point x="489" y="451"/>
      <point x="497" y="422"/>
      <point x="501" y="392" type="curve"/>
      <point x="502" y="360"/>
      <point x="499" y="327"/>
      <point x="489" y="302" type="curve"/>
      <point x="489" y="303" type="line"/>
      <point x="483" y="287"/>
      <point x="469" y="274"/>
      <point x="451" y="264" type="curve" smooth="yes"/>
      <point x="436" y="255"/>
      <point x="421" y="249"/>
      <point x="409" y="248" type="curve"/>
      <point x="410" y="259" type="line"/>
      <point x="410" y="261"/>
      <point x="411" y="267"/>
      <point x="412" y="270" type="curve"/>
      <point x="413" y="278"/>
      <point x="416" y="287"/>
      <point x="417" y="296" type="curve"/>
      <point x="418" y="310"/>
      <point x="422" y="325"/>
      <point x="424" y="340" type="curve"/>
      <point x="423" y="338" type="line"/>
      <point x="426" y="355" type="line"/>
      <point x="426" y="363"/>
      <point x="430" y="374"/>
      <point x="431" y="382" type="curve"/>
      <point x="430" y="379" type="line"/>
      <point x="438" y="416" type="line"/>
      <point x="448" y="484"/>
      <point x="338" y="485"/>
      <point x="297" y="485" type="curve" smooth="yes"/>
      <point x="210" y="485"/>
      <point x="161" y="433"/>
      <point x="151" y="340" type="curve" smooth="yes"/>
      <point x="150" y="330"/>
      <point x="149" y="321"/>
      <point x="149" y="309" type="curve" smooth="yes"/>
      <point x="149" y="227"/>
      <point x="194" y="190"/>
      <point x="275" y="190" type="curve" smooth="yes"/>
      <point x="288" y="190"/>
      <point x="304" y="190"/>
      <point x="316" y="192" type="curve"/>
      <point x="326" y="173"/>
      <point x="344" y="158"/>
      <point x="369" y="152" type="curve"/>
      <point x="368" y="152" type="line"/>
      <point x="402" y="143"/>
      <point x="450" y="151"/>
      <point x="491" y="173" type="curve" smooth="yes"/>
      <point x="528" y="193"/>
      <point x="565" y="227"/>
      <point x="581" y="265" type="curve" smooth="yes"/>
      <point x="598" y="307"/>
      <point x="603" y="355"/>
      <point x="600" y="400" type="curve"/>
      <point x="595" y="444"/>
      <point x="583" y="489"/>
      <point x="561" y="524" type="curve" smooth="yes"/>
      <point x="532" y="569"/>
      <point x="486" y="605"/>
      <point x="435" y="625" type="curve" smooth="yes"/>
      <point x="404" y="636"/>
      <point x="367" y="644"/>
      <point x="333" y="644" type="curve" smooth="yes"/>
      <point x="310" y="644"/>
      <point x="288" y="642"/>
      <point x="266" y="636" type="curve"/>
      <point x="266" y="636" type="line"/>
      <point x="203" y="623"/>
      <point x="148" y="593"/>
      <point x="103" y="547" type="curve" smooth="yes"/>
      <point x="55" y="495"/>
      <point x="22" y="433"/>
      <point x="11" y="358" type="curve"/>
      <point x="12" y="359" type="line"/>
      <point x="7" y="335"/>
      <point x="5" y="314"/>
      <point x="5" y="294" type="curve" smooth="yes"/>
      <point x="5" y="190"/>
      <point x="52" y="108"/>
      <point x="137" y="55" type="curve" smooth="yes"/>
      <point x="192" y="21"/>
      <point x="258" y="4"/>
      <point x="329" y="4" type="curve" smooth="yes"/>
      <point x="350" y="4" type="line"/>
      <point x="427" y="9"/>
      <point x="501" y="34"/>
      <point x="558" y="75" type="curve" smooth="yes"/>
      <point x="570" y="84" type="line" smooth="yes"/>
      <point x="587" y="96"/>
      <point x="589" y="118"/>
      <point x="578" y="134" type="curve"/>
      <point x="561" y="156" type="line"/>
      <point x="549" y="173"/>
      <point x="527" y="175"/>
      <point x="511" y="164" type="curve" smooth="yes"/>
    </contour>
    <contour>
      <point x="255" y="291"/>
      <point x="247" y="299"/>
      <point x="250" y="328" type="curve"/>
      <point x="253" y="349"/>
      <point x="258" y="366"/>
      <point x="265" y="375" type="curve"/>
      <point x="271" y="382"/>
      <point x="282" y="385"/>
      <point x="297" y="385" type="curve" smooth="yes"/>
      <point x="308" y="385"/>
      <point x="317" y="384"/>
      <point x="323" y="383" type="curve"/>
      <point x="322" y="383" type="line"/>
      <point x="325" y="382"/>
      <point x="326" y="383"/>
      <point x="328" y="382" type="curve"/>
      <point x="328" y="380"/>
      <point x="328" y="375"/>
      <point x="326" y="366" type="curve"/>
      <point x="327" y="367" type="line"/>
      <point x="319" y="325"/>
      <point x="313" y="300"/>
      <point x="306" y="292" type="curve"/>
      <point x="301" y="291"/>
      <point x="292" y="291"/>
      <point x="275" y="291" type="curve" smooth="yes"/>
    </contour>
  </outline>
</glyph>
<glyph name="G" format="1">
  <advance width="402"/>
  <unicode hex="0047"/>
  <outline>
    <contour>
      <point x="136" y="338"/>
      <point x="139" y="238"/>
      <point x="195" y="238" type="curve" smooth="yes"/>
      <point x="230" y="238" type="line"/>
      <point x="230" y="195" type="line" smooth="yes"/>
      <point x="230" y="130"/>
      <point x="209" y="99"/>
      <point x="166" y="99" type="curve" smooth="yes"/>
      <point x="122" y="99"/>
      <point x="101" y="130"/>
      <point x="101" y="195" type="curve" smooth="yes"/>
      <point x="101" y="221"/>
      <point x="101" y="321"/>
      <point x="101" y="480" type="curve" smooth="yes"/>
      <point x="101" y="526"/>
      <point x="110" y="550"/>
      <point x="124" y="562" type="curve"/>
      <point x="135" y="573"/>
      <point x="152" y="575"/>
      <point x="166" y="575" type="curve" smooth="yes"/>
      <point x="180" y="575"/>
      <point x="196" y="573"/>
      <point x="208" y="562" type="curve" smooth="yes"/>
      <point x="220" y="551"/>
      <point x="230" y="527"/>
      <point x="230" y="480" type="curve" smooth="yes"/>
      <point x="230" y="466" type="line" smooth="yes"/>
      <point x="230" y="446"/>
      <point x="246" y="430"/>
      <point x="266" y="430" type="curve" smooth="yes"/>
      <point x="295" y="430" type="line" smooth="yes"/>
      <point x="314" y="430"/>
      <point x="330" y="446"/>
      <point x="330" y="466" type="curve" smooth="yes"/>
      <point x="330" y="480" type="line" smooth="yes"/>
      <point x="330" y="607"/>
      <point x="276" y="674"/>
      <point x="166" y="674" type="curve" smooth="yes"/>
      <point x="56" y="674"/>
      <point x="1" y="607"/>
      <point x="1" y="480" type="curve" smooth="yes"/>
      <point x="1" y="195" type="line" smooth="yes"/>
      <point x="1" y="69"/>
      <point x="56" y="0"/>
      <point x="166" y="0" type="curve" smooth="yes"/>
      <point x="276" y="0"/>
      <point x="330" y="68"/>
      <point x="330" y="195" type="curve" smooth="yes"/>
      <point x="330" y="302" type="line" smooth="yes"/>
      <point x="330" y="322"/>
      <point x="314" y="338"/>
      <point x="295" y="338" type="curve" smooth="yes"/>
      <point x="195" y="338" type="line" smooth="yes"/>
    </contour>
  </outline>
</glyph>
<glyph name="H" format="1">
  <advance width="394"/>
  <unicode hex="0048"/>
  <outline>
    <contour>
      <point x="101" y="386" type="line"/>
      <point x="101" y="638" type="line" smooth="yes"/>
      <point x="101" y="658"/>
      <point x="85" y="674"/>
      <point x="65" y="674" type="curve" smooth="yes"/>
      <point x="37" y="674" type="line" smooth="yes"/>
      <point x="17" y="674"/>
      <point x="1" y="658"/>
      <point x="1" y="638" type="curve" smooth="yes"/>
      <point x="1" y="36" type="line" smooth="yes"/>
      <point x="1" y="16"/>
      <point x="17" y="0"/>
      <point x="37" y="0" type="curve" smooth="yes"/>
      <point x="65" y="0" type="line" smooth="yes"/>
      <point x="85" y="0"/>
      <point x="101" y="16"/>
      <point x="101" y="36" type="curve" smooth="yes"/>
      <point x="101" y="287" type="line"/>
      <point x="212" y="287" type="line"/>
      <point x="212" y="36" type="line" smooth="yes"/>
      <point x="212" y="16"/>
      <point x="228" y="0"/>
      <point x="248" y="0" type="curve" smooth="yes"/>
      <point x="276" y="0" type="line" smooth="yes"/>
      <point x="296" y="0"/>
      <point x="312" y="16"/>
      <point x="312" y="36" type="curve" smooth="yes"/>
      <point x="312" y="638" type="line" smooth="yes"/>
      <point x="312" y="658"/>
      <point x="296" y="674"/>
      <point x="276" y="674" type="curve" smooth="yes"/>
      <point x="248" y="674" type="line" smooth="yes"/>
      <point x="228" y="674"/>
      <point x="212" y="658"/>
      <point x="212" y="638" type="curve" smooth="yes"/>
      <point x="212" y="386" type="line"/>
    </contour>
  </outline>
</glyph>
<glyph name="N" format="1">
  <advance width="410"/>
  <unicode hex="004E"/>
  <outline>
    <contour>
      <point x="296" y="0" type="line" smooth="yes"/>
      <point x="316" y="0"/>
      <point x="332" y="16"/>
      <point x="332" y="36" type="curve" smooth="yes"/>
      <point x="332" y="638" type="line" smooth="yes"/>
      <point x="332" y="658"/>
      <point x="316" y="674"/>
      <point x="296" y="674" type="curve" smooth="yes"/>
      <point x="268" y="674" type="line" smooth="yes"/>
      <point x="248" y="674"/>
      <point x="232" y="658"/>
      <point x="232" y="638" type="curve" smooth="yes"/>
      <point x="232" y="308" type="line"/>
      <point x="93" y="652" type="line"/>
      <point x="89" y="663"/>
      <point x="73" y="674"/>
      <point x="60" y="674" type="curve" smooth="yes"/>
      <point x="36" y="674" type="line" smooth="yes"/>
      <point x="17" y="674"/>
      <point x="0" y="658"/>
      <point x="0" y="638" type="curve" smooth="yes"/>
      <point x="0" y="36" type="line" smooth="yes"/>
      <point x="0" y="16"/>
      <point x="17" y="0"/>
      <point x="36" y="0" type="curve" smooth="yes"/>
      <point x="65" y="0" type="line" smooth="yes"/>
      <point x="84" y="0"/>
      <point x="101" y="16"/>
      <point x="101" y="36" type="curve" smooth="yes"/>
      <point x="101" y="366" type="line"/>
      <point x="240" y="22" type="line"/>
      <point x="244" y="11"/>
      <point x="261" y="0"/>
      <point x="273" y="0" type="curve" smooth="yes"/>
    </contour>
  </outline>
</glyph>
<glyph name="T" format="1">
  <advance width="401"/>
  <unicode hex="0054"/>
  <outline>
    <contour>
      <point x="-3" y="611" type="line" smooth="yes"/>
      <point x="-3" y="591"/>
      <point x="13" y="575"/>
      <point x="33" y="575" type="curve" smooth="yes"/>
      <point x="114" y="575" type="line"/>
      <point x="114" y="37" type="line" smooth="yes"/>
      <point x="114" y="17"/>
      <point x="130" y="1"/>
      <point x="150" y="1" type="curve" smooth="yes"/>
      <point x="177" y="1" type="line" smooth="yes"/>
      <point x="197" y="1"/>
      <point x="213" y="17"/>
      <point x="213" y="37" type="curve" smooth="yes"/>
      <point x="213" y="575" type="line"/>
      <point x="295" y="575" type="line" smooth="yes"/>
      <point x="315" y="575"/>
      <point x="331" y="591"/>
      <point x="331" y="611" type="curve" smooth="yes"/>
      <point x="331" y="639" type="line" smooth="yes"/>
      <point x="331" y="659"/>
      <point x="315" y="675"/>
      <point x="295" y="675" type="curve" smooth="yes"/>
      <point x="33" y="675" type="line" smooth="yes"/>
      <point x="13" y="675"/>
      <point x="-3" y="659"/>
      <point x="-3" y="639" type="curve" smooth="yes"/>
    </contour>
  </outline>
</glyph>
<glyph name="V" format="1">
  <advance width="435"/>
  <unicode hex="0056"/>
  <outline>
    <contour>
      <point x="102" y="647" type="line" smooth="yes"/>
      <point x="98" y="662"/>
      <point x="82" y="675"/>
      <point x="67" y="675" type="curve" smooth="yes"/>
      <point x="39" y="675" type="line" smooth="yes"/>
      <point x="14" y="675"/>
      <point x="-2" y="654"/>
      <point x="4" y="631" type="curve" smooth="yes"/>
      <point x="146" y="29" type="line"/>
      <point x="149" y="13"/>
      <point x="165" y="1"/>
      <point x="181" y="1" type="curve" smooth="yes"/>
      <point x="202" y="1" type="line" smooth="yes"/>
      <point x="217" y="1"/>
      <point x="233" y="13"/>
      <point x="237" y="29" type="curve" smooth="yes"/>
      <point x="379" y="631" type="line" smooth="yes"/>
      <point x="384" y="654"/>
      <point x="368" y="675"/>
      <point x="344" y="675" type="curve" smooth="yes"/>
      <point x="315" y="675" type="line" smooth="yes"/>
      <point x="300" y="675"/>
      <point x="283" y="662"/>
      <point x="280" y="647" type="curve" smooth="yes"/>
      <point x="191" y="266" type="line"/>
    </contour>
  </outline>
</glyph>
<glyph name="X" format="1">
  <advance width="442"/>
  <unicode hex="0058"/>
  <outline>
    <contour>
      <point x="185" y="220" type="line"/>
      <point x="279" y="21" type="line" smooth="yes"/>
      <point x="284" y="10"/>
      <point x="300" y="0"/>
      <point x="312" y="0" type="curve" smooth="yes"/>
      <point x="343" y="0" type="line" smooth="yes"/>
      <point x="372" y="0"/>
      <point x="387" y="26"/>
      <point x="375" y="51" type="curve" smooth="yes"/>
      <point x="239" y="337" type="line"/>
      <point x="373" y="623" type="line" smooth="yes"/>
      <point x="385" y="648"/>
      <point x="369" y="674"/>
      <point x="341" y="674" type="curve" smooth="yes"/>
      <point x="310" y="674" type="line" smooth="yes"/>
      <point x="298" y="674"/>
      <point x="282" y="664"/>
      <point x="278" y="653" type="curve"/>
      <point x="247" y="587"/>
      <point x="215" y="521"/>
      <point x="184" y="455" type="curve"/>
      <point x="89" y="653" type="line"/>
      <point x="85" y="663"/>
      <point x="69" y="674"/>
      <point x="57" y="674" type="curve" smooth="yes"/>
      <point x="26" y="674" type="line" smooth="yes"/>
      <point x="-3" y="674"/>
      <point x="-18" y="648"/>
      <point x="-7" y="623" type="curve" smooth="yes"/>
      <point x="129" y="337" type="line"/>
      <point x="-7" y="51" type="line" smooth="yes"/>
      <point x="-18" y="26"/>
      <point x="-2" y="0"/>
      <point x="26" y="0" type="curve" smooth="yes"/>
      <point x="57" y="0" type="line" smooth="yes"/>
      <point x="69" y="0"/>
      <point x="85" y="11"/>
      <point x="89" y="21" type="curve"/>
    </contour>
  </outline>
</glyph>
<glyph name="underscore" format="1">
  <advance width="511"/>
  <unicode hex="005F"/>
  <outline>
    <contour>
      <point x="447" y="36" type="line" smooth="yes"/>
      <point x="447" y="55"/>
      <point x="430" y="72"/>
      <point x="411" y="72" type="curve" smooth="yes"/>
      <point x="50" y="72" type="line" smooth="yes"/>
      <point x="30" y="72"/>
      <point x="14" y="55"/>
      <point x="14" y="36" type="curve" smooth="yes"/>
      <point x="14" y="8" type="line" smooth="yes"/>
      <point x="14" y="-12"/>
      <point x="30" y="-28"/>
      <point x="50" y="-28" type="curve" smooth="yes"/>
      <point x="411" y="-28" type="line" smooth="yes"/>
      <point x="430" y="-28"/>
      <point x="447" y="-12"/>
      <point x="447" y="8" type="curve" smooth="yes"/>
    </contour>
  </outline>
</glyph>
<glyph name="y" format="1">
  <advance width="406"/>
  <unicode hex="0079"/>
  <outline>
    <contour>
      <point x="84" y="653" type="line" smooth="yes"/>
      <point x="80" y="663"/>
      <point x="63" y="674"/>
      <point x="51" y="674" type="curve" smooth="yes"/>
      <point x="19" y="674" type="line" smooth="yes"/>
      <point x="-9" y="674"/>
      <point x="-25" y="649"/>
      <point x="-14" y="624" type="curve" smooth="yes"/>
      <point x="29" y="524"/>
      <point x="73" y="425"/>
      <point x="116" y="325" type="curve"/>
      <point x="116" y="36" type="line" smooth="yes"/>
      <point x="116" y="16"/>
      <point x="132" y="0"/>
      <point x="151" y="0" type="curve" smooth="yes"/>
      <point x="179" y="0" type="line" smooth="yes"/>
      <point x="199" y="0"/>
      <point x="215" y="16"/>
      <point x="215" y="36" type="curve" smooth="yes"/>
      <point x="215" y="324" type="line"/>
      <point x="344" y="624" type="line" smooth="yes"/>
      <point x="354" y="649"/>
      <point x="338" y="674"/>
      <point x="311" y="674" type="curve" smooth="yes"/>
      <point x="278" y="674" type="line" smooth="yes"/>
      <point x="267" y="674"/>
      <point x="250" y="663"/>
      <point x="245" y="653" type="curve"/>
      <point x="165" y="469" type="line"/>
    </contour>
  </outline>
</glyph>
<glyph name="exclamdown" format="1">
  <advance width="143"/>
  <unicode hex="00A1"/>
  <outline>
    <contour>
      <point x="93" y="502" type="line" smooth="yes"/>
      <point x="93" y="521"/>
      <point x="77" y="538"/>
      <point x="57" y="538" type="curve" smooth="yes"/>
      <point x="29" y="538" type="line" smooth="yes"/>
      <point x="10" y="538"/>
      <point x="-6" y="521"/>
      <point x="-6" y="502" type="curve" smooth="yes"/>
      <point x="-6" y="37" type="line" smooth="yes"/>
      <point x="-6" y="17"/>
      <point x="10" y="1"/>
      <point x="29" y="1" type="curve" smooth="yes"/>
      <point x="57" y="1" type="line" smooth="yes"/>
      <point x="77" y="1"/>
      <point x="93" y="17"/>
      <point x="93" y="37" type="curve" smooth="yes"/>
    </contour>
    <contour>
      <point x="57" y="565" type="line" smooth="yes"/>
      <point x="77" y="565"/>
      <point x="93" y="581"/>
      <point x="93" y="601" type="curve" smooth="yes"/>
      <point x="93" y="639" type="line" smooth="yes"/>
      <point x="93" y="659"/>
      <point x="77" y="675"/>
      <point x="57" y="675" type="curve" smooth="yes"/>
      <point x="29" y="675" type="line" smooth="yes"/>
      <point x="10" y="675"/>
      <point x="-6" y="659"/>
      <point x="-6" y="639" type="curve" smooth="yes"/>
      <point x="-6" y="601" type="line" smooth="yes"/>
      <point x="-6" y="581"/>
      <point x="10" y="565"/>
      <point x="29" y="565" type="curve" smooth="yes"/>
    </contour>
  </outline>
</glyph>
<glyph name="sterling" format="1">
  <advance width="373"/>
  <unicode hex="00A3"/>
  <outline>
    <contour>
      <point x="284" y="350" type="line" smooth="yes"/>
      <point x="284" y="370"/>
      <point x="267" y="386"/>
      <point x="248" y="386" type="curve" smooth="yes"/>
      <point x="149" y="386" type="line"/>
      <point x="149" y="427"/>
      <point x="149" y="439"/>
      <point x="149" y="494" type="curve" smooth="yes"/>
      <point x="149" y="543"/>
      <point x="161" y="575"/>
      <point x="190" y="575" type="curve" smooth="yes"/>
      <point x="232" y="575"/>
      <point x="232" y="501"/>
      <point x="272" y="516" type="curve"/>
      <point x="296" y="528" type="line" smooth="yes"/>
      <point x="311" y="535"/>
      <point x="321" y="555"/>
      <point x="317" y="571" type="curve" smooth="yes"/>
      <point x="299" y="637"/>
      <point x="264" y="674"/>
      <point x="190" y="674" type="curve" smooth="yes"/>
      <point x="94" y="674"/>
      <point x="48" y="597"/>
      <point x="48" y="494" type="curve" smooth="yes"/>
      <point x="48" y="457"/>
      <point x="48" y="421"/>
      <point x="49" y="386" type="curve"/>
      <point x="30" y="386" type="line" smooth="yes"/>
      <point x="10" y="386"/>
      <point x="-6" y="370"/>
      <point x="-6" y="350" type="curve" smooth="yes"/>
      <point x="-6" y="323" type="line" smooth="yes"/>
      <point x="-6" y="303"/>
      <point x="10" y="287"/>
      <point x="30" y="287" type="curve" smooth="yes"/>
      <point x="50" y="287" type="line"/>
      <point x="48" y="198"/>
      <point x="39" y="127"/>
      <point x="4" y="91" type="curve"/>
      <point x="-1" y="87"/>
      <point x="-7" y="72"/>
      <point x="-7" y="66" type="curve" smooth="yes"/>
      <point x="-7" y="36" type="line" smooth="yes"/>
      <point x="-7" y="16"/>
      <point x="9" y="0"/>
      <point x="29" y="0" type="curve" smooth="yes"/>
      <point x="292" y="0" type="line" smooth="yes"/>
      <point x="312" y="0"/>
      <point x="328" y="16"/>
      <point x="328" y="36" type="curve" smooth="yes"/>
      <point x="328" y="66" type="line" smooth="yes"/>
      <point x="328" y="86"/>
      <point x="312" y="102"/>
      <point x="292" y="102" type="curve" smooth="yes"/>
      <point x="123" y="102" type="line"/>
      <point x="140" y="145"/>
      <point x="146" y="202"/>
      <point x="148" y="287" type="curve"/>
      <point x="248" y="287" type="line" smooth="yes"/>
      <point x="267" y="287"/>
      <point x="284" y="303"/>
      <point x="284" y="323" type="curve" smooth="yes"/>
    </contour>
  </outline>
</glyph>
<glyph name="ordmasculine" format="1">
  <advance width="140"/>
  <unicode hex="00BA"/>
  <outline>
    <contour>
      <point x="-12" y="678"/>
      <point x="21" y="644"/>
      <point x="63" y="644" type="curve" smooth="yes"/>
      <point x="104" y="644"/>
      <point x="138" y="678"/>
      <point x="138" y="719" type="curve" smooth="yes"/>
      <point x="138" y="760"/>
      <point x="104" y="794"/>
      <point x="63" y="794" type="curve" smooth="yes"/>
      <point x="21" y="794"/>
      <point x="-12" y="760"/>
      <point x="-12" y="719" type="curve" smooth="yes"/>
    </contour>
    <contour>
      <point x="83" y="706"/>
      <point x="73" y="697"/>
      <point x="62" y="697" type="curve" smooth="yes"/>
      <point x="49" y="697"/>
      <point x="40" y="706"/>
      <point x="40" y="719" type="curve" smooth="yes"/>
      <point x="40" y="730"/>
      <point x="49" y="740"/>
      <point x="62" y="740" type="curve" smooth="yes"/>
      <point x="73" y="740"/>
      <point x="83" y="730"/>
      <point x="83" y="719" type="curve" smooth="yes"/>
    </contour>
  </outline>
</glyph>
<glyph name="Igrave" format="1">
  <advance width="159"/>
  <unicode hex="00CC"/>
  <outline>
    <contour>
      <point x="97" y="638" type="line" smooth="yes"/>
      <point x="97" y="658"/>
      <point x="80" y="674"/>
      <point x="61" y="674" type="curve" smooth="yes"/>
      <point x="33" y="674" type="line" smooth="yes"/>
      <point x="13" y="674"/>
      <point x="-3" y="658"/>
      <point x="-3" y="638" type="curve" smooth="yes"/>
      <point x="-3" y="36" type="line" smooth="yes"/>
      <point x="-3" y="16"/>
      <point x="13" y="0"/>
      <point x="33" y="0" type="curve" smooth="yes"/>
      <point x="61" y="0" type="line" smooth="yes"/>
      <point x="80" y="0"/>
      <point x="97" y="16"/>
      <point x="97" y="36" type="curve" smooth="yes"/>
    </contour>
    <contour>
      <point x="177" y="717"/>
      <point x="190" y="762"/>
      <point x="161" y="782" type="curve"/>
      <point x="161" y="782"/>
      <point x="61" y="863"/>
      <point x="-9" y="863" type="curve" smooth="yes"/>
      <point x="-45" y="863"/>
      <point x="-59" y="818"/>
      <point x="-30" y="798" type="curve"/>
      <point x="-30" y="798"/>
      <point x="80" y="717"/>
      <point x="141" y="717" type="curve" smooth="yes"/>
    </contour>
  </outline>
</glyph>
<glyph name="Iacute" format="1">
  <advance width="159"/>
  <unicode hex="00CD"/>
  <outline>
    <contour>
      <point x="97" y="638" type="line" smooth="yes"/>
      <point x="97" y="658"/>
      <point x="80" y="674"/>
      <point x="61" y="674" type="curve" smooth="yes"/>
      <point x="33" y="674" type="line" smooth="yes"/>
      <point x="13" y="674"/>
      <point x="-3" y="658"/>
      <point x="-3" y="638" type="curve" smooth="yes"/>
      <point x="-3" y="36" type="line" smooth="yes"/>
      <point x="-3" y="16"/>
      <point x="13" y="0"/>
      <point x="33" y="0" type="curve" smooth="yes"/>
      <point x="61" y="0" type="line" smooth="yes"/>
      <point x="80" y="0"/>
      <point x="97" y="16"/>
      <point x="97" y="36" type="curve" smooth="yes"/>
    </contour>
    <contour>
      <point x="41" y="717"/>
      <point x="151" y="798"/>
      <point x="151" y="798" type="curve"/>
      <point x="180" y="818"/>
      <point x="166" y="863"/>
      <point x="130" y="863" type="curve" smooth="yes"/>
      <point x="60" y="863"/>
      <point x="-40" y="782"/>
      <point x="-40" y="782" type="curve"/>
      <point x="-69" y="762"/>
      <point x="-56" y="717"/>
      <point x="-20" y="717" type="curve" smooth="yes"/>
    </contour>
  </outline>
</glyph>
<glyph name="Odieresis" format="1">
  <advance width="406"/>
  <unicode hex="00D6"/>
  <outline>
    <contour>
      <point x="1" y="196" type="line" smooth="yes"/>
      <point x="1" y="117"/>
      <point x="23" y="71"/>
      <point x="54" y="40" type="curve" smooth="yes"/>
      <point x="87" y="8"/>
      <point x="129" y="0"/>
      <point x="165" y="0" type="curve" smooth="yes"/>
      <point x="202" y="0"/>
      <point x="244" y="8"/>
      <point x="277" y="40" type="curve" smooth="yes"/>
      <point x="308" y="71"/>
      <point x="329" y="117"/>
      <point x="329" y="196" type="curve" smooth="yes"/>
      <point x="329" y="479" type="line" smooth="yes"/>
      <point x="329" y="606"/>
      <point x="275" y="674"/>
      <point x="165" y="674" type="curve" smooth="yes"/>
      <point x="56" y="674"/>
      <point x="1" y="605"/>
      <point x="1" y="479" type="curve" smooth="yes"/>
    </contour>
    <contour>
      <point x="101" y="479" type="line" smooth="yes"/>
      <point x="101" y="544"/>
      <point x="121" y="575"/>
      <point x="165" y="575" type="curve" smooth="yes"/>
      <point x="208" y="575"/>
      <point x="229" y="546"/>
      <point x="229" y="479" type="curve" smooth="yes"/>
      <point x="229" y="196" type="line" smooth="yes"/>
      <point x="229" y="128"/>
      <point x="207" y="99"/>
      <point x="165" y="99" type="curve" smooth="yes"/>
      <point x="122" y="99"/>
      <point x="101" y="130"/>
      <point x="101" y="196" type="curve" smooth="yes"/>
    </contour>
    <contour>
      <point x="154" y="791" type="line" smooth="yes"/>
      <point x="154" y="811"/>
      <point x="138" y="827"/>
      <point x="118" y="827" type="curve" smooth="yes"/>
      <point x="90" y="827" type="line" smooth="yes"/>
      <point x="70" y="827"/>
      <point x="54" y="811"/>
      <point x="54" y="791" type="curve" smooth="yes"/>
      <point x="54" y="753" type="line" smooth="yes"/>
      <point x="54" y="733"/>
      <point x="70" y="717"/>
      <point x="90" y="717" type="curve" smooth="yes"/>
      <point x="118" y="717" type="line" smooth="yes"/>
      <point x="138" y="717"/>
      <point x="154" y="733"/>
      <point x="154" y="753" type="curve" smooth="yes"/>
    </contour>
    <contour>
      <point x="285" y="791" type="line" smooth="yes"/>
      <point x="285" y="811"/>
      <point x="269" y="827"/>
      <point x="250" y="827" type="curve" smooth="yes"/>
      <point x="221" y="827" type="line" smooth="yes"/>
      <point x="201" y="827"/>
      <point x="185" y="811"/>
      <point x="185" y="791" type="curve" smooth="yes"/>
      <point x="185" y="753" type="line" smooth="yes"/>
      <point x="185" y="733"/>
      <point x="201" y="717"/>
      <point x="221" y="717" type="curve" smooth="yes"/>
      <point x="250" y="717" type="line" smooth="yes"/>
      <point x="269" y="717"/>
      <point x="285" y="733"/>
      <point x="285" y="753" type="curve" smooth="yes"/>
    </contour>
  </outline>
</glyph>
<glyph name="multiply" format="1">
  <advance width="294"/>
  <unicode hex="00D7"/>
  <outline>
    <contour>
      <point x="8" y="434" type="line"/>
      <point x="-7" y="420"/>
      <point x="-7" y="399"/>
      <point x="8" y="384" type="curve" smooth="yes"/>
      <point x="50" y="342" type="line"/>
      <point x="8" y="300" type="line" smooth="yes"/>
      <point x="-7" y="286"/>
      <point x="-7" y="265"/>
      <point x="8" y="250" type="curve" smooth="yes"/>
      <point x="27" y="231" type="line" smooth="yes"/>
      <point x="42" y="216"/>
      <point x="63" y="216"/>
      <point x="77" y="231" type="curve" smooth="yes"/>
      <point x="119" y="273" type="line"/>
      <point x="161" y="231" type="line" smooth="yes"/>
      <point x="176" y="216"/>
      <point x="197" y="216"/>
      <point x="212" y="231" type="curve" smooth="yes"/>
      <point x="231" y="250" type="line" smooth="yes"/>
      <point x="245" y="265"/>
      <point x="245" y="286"/>
      <point x="231" y="300" type="curve" smooth="yes"/>
      <point x="189" y="342" type="line"/>
      <point x="231" y="384" type="line" smooth="yes"/>
      <point x="245" y="399"/>
      <point x="245" y="420"/>
      <point x="231" y="434" type="curve" smooth="yes"/>
      <point x="212" y="454" type="line"/>
      <point x="197" y="468"/>
      <point x="176" y="468"/>
      <point x="161" y="454" type="curve" smooth="yes"/>
      <point x="119" y="412" type="line"/>
      <point x="77" y="454" type="line" smooth="yes"/>
      <point x="63" y="468"/>
      <point x="42" y="468"/>
      <point x="27" y="454" type="curve"/>
    </contour>
  </outline>
</glyph>
<glyph name="Ugrave" format="1">
  <advance width="409"/>
  <unicode hex="00D9"/>
  <outline>
    <contour>
      <point x="-6" y="184" type="line" smooth="yes"/>
      <point x="-6" y="78"/>
      <point x="38" y="1"/>
      <point x="158" y="1" type="curve" smooth="yes"/>
      <point x="274" y="1"/>
      <point x="322" y="72"/>
      <point x="322" y="184" type="curve" smooth="yes"/>
      <point x="322" y="639" type="line" smooth="yes"/>
      <point x="322" y="659"/>
      <point x="306" y="675"/>
      <point x="286" y="675" type="curve" smooth="yes"/>
      <point x="258" y="675" type="line" smooth="yes"/>
      <point x="239" y="675"/>
      <point x="223" y="659"/>
      <point x="223" y="639" type="curve" smooth="yes"/>
      <point x="223" y="184" type="line" smooth="yes"/>
      <point x="223" y="136"/>
      <point x="209" y="100"/>
      <point x="158" y="100" type="curve" smooth="yes"/>
      <point x="109" y="100"/>
      <point x="93" y="131"/>
      <point x="93" y="184" type="curve" smooth="yes"/>
      <point x="93" y="639" type="line" smooth="yes"/>
      <point x="93" y="659"/>
      <point x="77" y="675"/>
      <point x="57" y="675" type="curve" smooth="yes"/>
      <point x="29" y="675" type="line" smooth="yes"/>
      <point x="10" y="675"/>
      <point x="-6" y="659"/>
      <point x="-6" y="639" type="curve" smooth="yes"/>
    </contour>
    <contour>
      <point x="285" y="717"/>
      <point x="298" y="762"/>
      <point x="269" y="782" type="curve"/>
      <point x="269" y="782"/>
      <point x="169" y="863"/>
      <point x="99" y="863" type="curve" smooth="yes"/>
      <point x="63" y="863"/>
      <point x="49" y="818"/>
      <point x="78" y="798" type="curve"/>
      <point x="78" y="798"/>
      <point x="188" y="717"/>
      <point x="249" y="717" type="curve" smooth="yes"/>
    </contour>
  </outline>
</glyph>
<glyph name="eth" format="1">
  <advance width="398"/>
  <unicode hex="00F0"/>
  <outline>
    <contour>
      <point x="136" y="0" type="line" smooth="yes"/>
      <point x="252" y="0"/>
      <point x="305" y="66"/>
      <point x="305" y="191" type="curve" smooth="yes"/>
      <point x="305" y="459" type="line" smooth="yes"/>
      <point x="305" y="584"/>
      <point x="252" y="650"/>
      <point x="136" y="650" type="curve" smooth="yes"/>
      <point x="37" y="650" type="line" smooth="yes"/>
      <point x="18" y="650"/>
      <point x="3" y="634"/>
      <point x="3" y="616" type="curve" smooth="yes"/>
      <point x="3" y="34" type="line" smooth="yes"/>
      <point x="3" y="16"/>
      <point x="18" y="0"/>
      <point x="37" y="0" type="curve" smooth="yes"/>
    </contour>
    <contour>
      <point x="136" y="554" type="line" smooth="yes"/>
      <point x="187" y="554"/>
      <point x="209" y="524"/>
      <point x="209" y="459" type="curve" smooth="yes"/>
      <point x="209" y="191" type="line" smooth="yes"/>
      <point x="209" y="126"/>
      <point x="187" y="96"/>
      <point x="136" y="96" type="curve" smooth="yes"/>
      <point x="98" y="96" type="line"/>
      <point x="98" y="554" type="line"/>
    </contour>
    <contour>
      <point x="198" y="338" type="line" smooth="yes"/>
      <point x="198" y="357"/>
      <point x="183" y="372"/>
      <point x="164" y="372" type="curve" smooth="yes"/>
      <point x="-46" y="372" type="line" smooth="yes"/>
      <point x="-65" y="372"/>
      <point x="-81" y="357"/>
      <point x="-81" y="338" type="curve" smooth="yes"/>
      <point x="-81" y="311" type="line" smooth="yes"/>
      <point x="-81" y="292"/>
      <point x="-65" y="277"/>
      <point x="-46" y="277" type="curve" smooth="yes"/>
      <point x="164" y="277" type="line" smooth="yes"/>
      <point x="183" y="277"/>
      <point x="198" y="292"/>
      <point x="198" y="311" type="curve" smooth="yes"/>
    </contour>
  </outline>
</glyph>
<glyph name="ocircumflex" format="1">
  <advance width="406"/>
  <unicode hex="00F4"/>
  <outline>
    <contour>
      <point x="1" y="196" type="line" smooth="yes"/>
      <point x="1" y="117"/>
      <point x="23" y="71"/>
      <point x="54" y="40" type="curve" smooth="yes"/>
      <point x="87" y="8"/>
      <point x="129" y="0"/>
      <point x="165" y="0" type="curve" smooth="yes"/>
      <point x="202" y="0"/>
      <point x="244" y="8"/>
      <point x="277" y="40" type="curve" smooth="yes"/>
      <point x="308" y="71"/>
      <point x="329" y="117"/>
      <point x="329" y="196" type="curve" smooth="yes"/>
      <point x="329" y="479" type="line" smooth="yes"/>
      <point x="329" y="606"/>
      <point x="275" y="674"/>
      <point x="165" y="674" type="curve" smooth="yes"/>
      <point x="56" y="674"/>
      <point x="1" y="605"/>
      <point x="1" y="479" type="curve" smooth="yes"/>
    </contour>
    <contour>
      <point x="101" y="479" type="line" smooth="yes"/>
      <point x="101" y="544"/>
      <point x="121" y="575"/>
      <point x="165" y="575" type="curve" smooth="yes"/>
      <point x="208" y="575"/>
      <point x="229" y="546"/>
      <point x="229" y="479" type="curve" smooth="yes"/>
      <point x="229" y="196" type="line" smooth="yes"/>
      <point x="229" y="128"/>
      <point x="207" y="99"/>
      <point x="165" y="99" type="curve" smooth="yes"/>
      <point x="122" y="99"/>
      <point x="101" y="130"/>
      <point x="101" y="196" type="curve" smooth="yes"/>
    </contour>
    <contour>
      <point x="61" y="775" type="line" smooth="yes"/>
      <point x="40" y="750"/>
      <point x="56" y="717"/>
      <point x="89" y="717" type="curve" smooth="yes"/>
      <point x="122" y="717" type="line" smooth="yes"/>
      <point x="130" y="717"/>
      <point x="146" y="724"/>
      <point x="150" y="730" type="curve"/>
      <point x="167" y="759" type="line"/>
      <point x="184" y="730" type="line"/>
      <point x="189" y="724"/>
      <point x="205" y="717"/>
      <point x="212" y="717" type="curve" smooth="yes"/>
      <point x="246" y="717" type="line" smooth="yes"/>
      <point x="278" y="717"/>
      <point x="294" y="750"/>
      <point x="274" y="775" type="curve" smooth="yes"/>
      <point x="213" y="849" type="line" smooth="yes"/>
      <point x="208" y="855"/>
      <point x="192" y="863"/>
      <point x="185" y="863" type="curve" smooth="yes"/>
      <point x="149" y="863" type="line" smooth="yes"/>
      <point x="142" y="863"/>
      <point x="126" y="855"/>
      <point x="122" y="849" type="curve"/>
    </contour>
  </outline>
</glyph>
<glyph name="oslash" format="1">
  <advance width="406"/>
  <unicode hex="00F8"/>
  <outline>
    <contour>
      <point x="68" y="0" type="line" smooth="yes"/>
      <point x="77" y="0"/>
      <point x="88" y="5"/>
      <point x="95" y="13" type="curve"/>
      <point x="118" y="3"/>
      <point x="143" y="0"/>
      <point x="165" y="0" type="curve" smooth="yes"/>
      <point x="202" y="0"/>
      <point x="244" y="8"/>
      <point x="277" y="40" type="curve" smooth="yes"/>
      <point x="308" y="71"/>
      <point x="329" y="117"/>
      <point x="329" y="196" type="curve" smooth="yes"/>
      <point x="329" y="479" type="line" smooth="yes"/>
      <point x="329" y="511"/>
      <point x="325" y="539"/>
      <point x="318" y="564" type="curve"/>
      <point x="343" y="625" type="line" smooth="yes"/>
      <point x="353" y="650"/>
      <point x="337" y="674"/>
      <point x="310" y="674" type="curve" smooth="yes"/>
      <point x="279" y="674" type="line" smooth="yes"/>
      <point x="268" y="674"/>
      <point x="255" y="666"/>
      <point x="248" y="656" type="curve"/>
      <point x="225" y="668"/>
      <point x="197" y="674"/>
      <point x="165" y="674" type="curve" smooth="yes"/>
      <point x="56" y="674"/>
      <point x="1" y="605"/>
      <point x="1" y="479" type="curve" smooth="yes"/>
      <point x="1" y="196" type="line" smooth="yes"/>
      <point x="1" y="150"/>
      <point x="9" y="115"/>
      <point x="21" y="88" type="curve"/>
      <point x="5" y="49" type="line" smooth="yes"/>
      <point x="-5" y="24"/>
      <point x="11" y="0"/>
      <point x="38" y="0" type="curve" smooth="yes"/>
    </contour>
    <contour>
      <point x="183" y="575"/>
      <point x="198" y="569"/>
      <point x="208" y="558" type="curve"/>
      <point x="101" y="289" type="line"/>
      <point x="101" y="479" type="line" smooth="yes"/>
      <point x="101" y="544"/>
      <point x="121" y="575"/>
      <point x="165" y="575" type="curve" smooth="yes"/>
    </contour>
    <contour>
      <point x="153" y="99"/>
      <point x="143" y="101"/>
      <point x="134" y="106" type="curve"/>
      <point x="229" y="341" type="line"/>
      <point x="229" y="196" type="line" smooth="yes"/>
      <point x="229" y="128"/>
      <point x="207" y="99"/>
      <point x="165" y="99" type="curve" smooth="yes"/>
    </contour>
  </outline>
</glyph>
<glyph name="udieresis" format="1">
  <advance width="409"/>
  <unicode hex="00FC"/>
  <outline>
    <contour>
      <point x="-6" y="184" type="line" smooth="yes"/>
      <point x="-6" y="78"/>
      <point x="38" y="1"/>
      <point x="158" y="1" type="curve" smooth="yes"/>
      <point x="274" y="1"/>
      <point x="322" y="72"/>
      <point x="322" y="184" type="curve" smooth="yes"/>
      <point x="322" y="639" type="line" smooth="yes"/>
      <point x="322" y="659"/>
      <point x="306" y="675"/>
      <point x="286" y="675" type="curve" smooth="yes"/>
      <point x="258" y="675" type="line" smooth="yes"/>
      <point x="239" y="675"/>
      <point x="223" y="659"/>
      <point x="223" y="639" type="curve" smooth="yes"/>
      <point x="223" y="184" type="line" smooth="yes"/>
      <point x="223" y="136"/>
      <point x="209" y="100"/>
      <point x="158" y="100" type="curve" smooth="yes"/>
      <point x="109" y="100"/>
      <point x="93" y="131"/>
      <point x="93" y="184" type="curve" smooth="yes"/>
      <point x="93" y="639" type="line" smooth="yes"/>
      <point x="93" y="659"/>
      <point x="77" y="675"/>
      <point x="57" y="675" type="curve" smooth="yes"/>
      <point x="29" y="675" type="line" smooth="yes"/>
      <point x="10" y="675"/>
      <point x="-6" y="659"/>
      <point x="-6" y="639" type="curve" smooth="yes"/>
    </contour>
    <contour>
      <point x="148" y="791" type="line" smooth="yes"/>
      <point x="148" y="811"/>
      <point x="132" y="827"/>
      <point x="112" y="827" type="curve" smooth="yes"/>
      <point x="84" y="827" type="line" smooth="yes"/>
      <point x="64" y="827"/>
      <point x="48" y="811"/>
      <point x="48" y="791" type="curve" smooth="yes"/>
      <point x="48" y="753" type="line" smooth="yes"/>
      <point x="48" y="733"/>
      <point x="64" y="717"/>
      <point x="84" y="717" type="curve" smooth="yes"/>
      <point x="112" y="717" type="line" smooth="yes"/>
      <point x="132" y="717"/>
      <point x="148" y="733"/>
      <point x="148" y="753" type="curve" smooth="yes"/>
    </contour>
    <contour>
      <point x="279" y="791" type="line" smooth="yes"/>
      <point x="279" y="811"/>
      <point x="263" y="827"/>
      <point x="244" y="827" type="curve" smooth="yes"/>
      <point x="215" y="827" type="line" smooth="yes"/>
      <point x="195" y="827"/>
      <point x="179" y="811"/>
      <point x="179" y="791" type="curve" smooth="yes"/>
      <point x="179" y="753" type="line" smooth="yes"/>
      <point x="179" y="733"/>
      <point x="195" y="717"/>
      <point x="215" y="717" type="curve" smooth="yes"/>
      <point x="244" y="717" type="line" smooth="yes"/>
      <point x="263" y="717"/>
      <point x="279" y="733"/>
      <point x="279" y="753" type="curve" smooth="yes"/>
    </contour>
  </outline>
</glyph>
<glyph name="Dcroat" format="1">
  <advance width="418"/>
  <unicode hex="0110"/>
  <outline>
    <contour>
      <point x="196" y="0" type="line" smooth="yes"/>
      <point x="316" y="0"/>
      <point x="371" y="68"/>
      <point x="371" y="198" type="curve" smooth="yes"/>
      <point x="371" y="476" type="line" smooth="yes"/>
      <point x="371" y="606"/>
      <point x="316" y="674"/>
      <point x="196" y="674" type="curve" smooth="yes"/>
      <point x="93" y="674" type="line" smooth="yes"/>
      <point x="74" y="674"/>
      <point x="58" y="658"/>
      <point x="58" y="638" type="curve" smooth="yes"/>
      <point x="58" y="386" type="line"/>
      <point x="23" y="386" type="line" smooth="yes"/>
      <point x="3" y="386"/>
      <point x="-13" y="370"/>
      <point x="-13" y="350" type="curve" smooth="yes"/>
      <point x="-13" y="323" type="line" smooth="yes"/>
      <point x="-13" y="303"/>
      <point x="3" y="287"/>
      <point x="23" y="287" type="curve" smooth="yes"/>
      <point x="58" y="287" type="line"/>
      <point x="58" y="36" type="line" smooth="yes"/>
      <point x="58" y="16"/>
      <point x="74" y="0"/>
      <point x="93" y="0" type="curve" smooth="yes"/>
    </contour>
    <contour>
      <point x="196" y="575" type="line" smooth="yes"/>
      <point x="249" y="575"/>
      <point x="271" y="543"/>
      <point x="271" y="476" type="curve" smooth="yes"/>
      <point x="271" y="198" type="line" smooth="yes"/>
      <point x="271" y="131"/>
      <point x="249" y="99"/>
      <point x="196" y="99" type="curve" smooth="yes"/>
      <point x="157" y="99" type="line"/>
      <point x="157" y="287" type="line"/>
      <point x="205" y="287" type="line" smooth="yes"/>
      <point x="225" y="287"/>
      <point x="241" y="303"/>
      <point x="241" y="323" type="curve" smooth="yes"/>
      <point x="241" y="350" type="line" smooth="yes"/>
      <point x="241" y="370"/>
      <point x="225" y="386"/>
      <point x="205" y="386" type="curve" smooth="yes"/>
      <point x="157" y="386" type="line"/>
      <point x="157" y="575" type="line"/>
    </contour>
  </outline>
</glyph>
<glyph name="Edotaccent" format="1">
  <advance width="353"/>
  <unicode hex="0116"/>
  <outline>
    <contour>
      <point x="36" y="674" type="line" smooth="yes"/>
      <point x="16" y="674"/>
      <point x="0" y="658"/>
      <point x="0" y="638" type="curve" smooth="yes"/>
      <point x="0" y="36" type="line" smooth="yes"/>
      <point x="0" y="16"/>
      <point x="16" y="0"/>
      <point x="36" y="0" type="curve" smooth="yes"/>
      <point x="252" y="0" type="line" smooth="yes"/>
      <point x="272" y="0"/>
      <point x="288" y="16"/>
      <point x="288" y="36" type="curve" smooth="yes"/>
      <point x="288" y="63" type="line" smooth="yes"/>
      <point x="288" y="83"/>
      <point x="272" y="99"/>
      <point x="252" y="99" type="curve" smooth="yes"/>
      <point x="99" y="99" type="line"/>
      <point x="99" y="288" type="line"/>
      <point x="225" y="288" type="line" smooth="yes"/>
      <point x="245" y="288"/>
      <point x="261" y="304"/>
      <point x="261" y="324" type="curve" smooth="yes"/>
      <point x="261" y="351" type="line" smooth="yes"/>
      <point x="261" y="371"/>
      <point x="245" y="387"/>
      <point x="225" y="387" type="curve" smooth="yes"/>
      <point x="99" y="387" type="line"/>
      <point x="99" y="575" type="line"/>
      <point x="252" y="575" type="line" smooth="yes"/>
      <point x="272" y="575"/>
      <point x="288" y="591"/>
      <point x="288" y="611" type="curve" smooth="yes"/>
      <point x="288" y="638" type="line" smooth="yes"/>
      <point x="288" y="658"/>
      <point x="272" y="674"/>
      <point x="252" y="674" type="curve" smooth="yes"/>
    </contour>
    <contour>
      <point x="203" y="784" type="line" smooth="yes"/>
      <point x="203" y="804"/>
      <point x="187" y="820"/>
      <point x="167" y="820" type="curve" smooth="yes"/>
      <point x="139" y="820" type="line" smooth="yes"/>
      <point x="119" y="820"/>
      <point x="103" y="804"/>
      <point x="103" y="784" type="curve" smooth="yes"/>
      <point x="103" y="746" type="line" smooth="yes"/>
      <point x="103" y="726"/>
      <point x="119" y="710"/>
      <point x="139" y="710" type="curve" smooth="yes"/>
      <point x="167" y="710" type="line" smooth="yes"/>
      <point x="187" y="710"/>
      <point x="203" y="726"/>
      <point x="203" y="746" type="curve" smooth="yes"/>
    </contour>
  </outline>
</glyph>
<glyph name="itilde" format="1">
  <advance width="159"/>
  <unicode hex="0129"/>
  <outline>
    <contour>
      <point x="97" y="638" type="line" smooth="yes"/>
      <point x="97" y="658"/>
      <point x="80" y="674"/>
      <point x="61" y="674" type="curve" smooth="yes"/>
      <point x="33" y="674" type="line" smooth="yes"/>
      <point x="13" y="674"/>
      <point x="-3" y="658"/>
      <point x="-3" y="638" type="curve" smooth="yes"/>
      <point x="-3" y="36" type="line" smooth="yes"/>
      <point x="-3" y="16"/>
      <point x="13" y="0"/>
      <point x="33" y="0" type="curve" smooth="yes"/>
      <point x="61" y="0" type="line" smooth="yes"/>
      <point x="80" y="0"/>
      <point x="97" y="16"/>
      <point x="97" y="36" type="curve" smooth="yes"/>
    </contour>
    <contour>
      <point x="-42" y="715" type="line" smooth="yes"/>
      <point x="-33" y="715"/>
      <point x="-17" y="724"/>
      <point x="-13" y="731" type="curve"/>
      <point x="-8" y="738"/>
      <point x="-5" y="740"/>
      <point x="-2" y="740" type="curve" smooth="yes"/>
      <point x="2" y="740"/>
      <point x="8" y="738"/>
      <point x="11" y="733" type="curve"/>
      <point x="28" y="715"/>
      <point x="59" y="702"/>
      <point x="91" y="702" type="curve" smooth="yes"/>
      <point x="129" y="702"/>
      <point x="171" y="720"/>
      <point x="196" y="772" type="curve" smooth="yes"/>
      <point x="207" y="797"/>
      <point x="191" y="823"/>
      <point x="163" y="823" type="curve" smooth="yes"/>
      <point x="127" y="823" type="line" smooth="yes"/>
      <point x="114" y="823"/>
      <point x="98" y="811"/>
      <point x="94" y="799" type="curve"/>
      <point x="94" y="800" type="line"/>
      <point x="86" y="800"/>
      <point x="78" y="806"/>
      <point x="71" y="811" type="curve"/>
      <point x="54" y="830"/>
      <point x="27" y="842"/>
      <point x="-2" y="842" type="curve" smooth="yes"/>
      <point x="-40" y="842"/>
      <point x="-83" y="822"/>
      <point x="-111" y="767" type="curve" smooth="yes"/>
      <point x="-124" y="741"/>
      <point x="-107" y="715"/>
      <point x="-79" y="715" type="curve" smooth="yes"/>
    </contour>
  </outline>
</glyph>
<glyph name="Idotaccent" format="1">
  <advance width="159"/>
  <unicode hex="0130"/>
  <outline>
    <contour>
      <point x="97" y="638" type="line" smooth="yes"/>
      <point x="97" y="658"/>
      <point x="80" y="674"/>
      <point x="61" y="674" type="curve" smooth="yes"/>
      <point x="33" y="674" type="line" smooth="yes"/>
      <point x="13" y="674"/>
      <point x="-3" y="658"/>
      <point x="-3" y="638" type="curve" smooth="yes"/>
      <point x="-3" y="36" type="line" smooth="yes"/>
      <point x="-3" y="16"/>
      <point x="13" y="0"/>
      <point x="33" y="0" type="curve" smooth="yes"/>
      <point x="61" y="0" type="line" smooth="yes"/>
      <point x="80" y="0"/>
      <point x="97" y="16"/>
      <point x="97" y="36" type="curve" smooth="yes"/>
    </contour>
    <contour>
      <point x="98" y="784" type="line" smooth="yes"/>
      <point x="98" y="804"/>
      <point x="82" y="820"/>
      <point x="62" y="820" type="curve" smooth="yes"/>
      <point x="34" y="820" type="line" smooth="yes"/>
      <point x="14" y="820"/>
      <point x="-2" y="804"/>
      <point x="-2" y="784" type="curve" smooth="yes"/>
      <point x="-2" y="746" type="line" smooth="yes"/>
      <point x="-2" y="726"/>
      <point x="14" y="710"/>
      <point x="34" y="710" type="curve" smooth="yes"/>
      <point x="62" y="710" type="line" smooth="yes"/>
      <point x="82" y="710"/>
      <point x="98" y="726"/>
      <point x="98" y="746" type="curve" smooth="yes"/>
    </contour>
  </outline>
</glyph>
<glyph name="Jcircumflex" format="1">
  <advance width="374"/>
  <unicode hex="0134"/>
  <outline>
    <contour>
      <point x="-9" y="183" type="line" smooth="yes"/>
      <point x="-9" y="63"/>
      <point x="43" y="0"/>
      <point x="147" y="0" type="curve" smooth="yes"/>
      <point x="251" y="0"/>
      <point x="301" y="63"/>
      <point x="301" y="183" type="curve" smooth="yes"/>
      <point x="301" y="638" type="line" smooth="yes"/>
      <point x="301" y="658"/>
      <point x="285" y="674"/>
      <point x="266" y="674" type="curve" smooth="yes"/>
      <point x="238" y="674" type="line" smooth="yes"/>
      <point x="218" y="674"/>
      <point x="202" y="658"/>
      <point x="202" y="638" type="curve" smooth="yes"/>
      <point x="202" y="183" type="line" smooth="yes"/>
      <point x="202" y="125"/>
      <point x="183" y="99"/>
      <point x="147" y="99" type="curve" smooth="yes"/>
      <point x="134" y="99"/>
      <point x="120" y="100"/>
      <point x="111" y="109" type="curve" smooth="yes"/>
      <point x="99" y="121"/>
      <point x="91" y="142"/>
      <point x="91" y="183" type="curve" smooth="yes"/>
      <point x="91" y="197" type="line" smooth="yes"/>
      <point x="91" y="216"/>
      <point x="74" y="232"/>
      <point x="55" y="232" type="curve" smooth="yes"/>
      <point x="27" y="232" type="line" smooth="yes"/>
      <point x="7" y="232"/>
      <point x="-9" y="216"/>
      <point x="-9" y="197" type="curve" smooth="yes"/>
    </contour>
    <contour>
      <point x="160" y="775" type="line" smooth="yes"/>
      <point x="139" y="750"/>
      <point x="155" y="717"/>
      <point x="188" y="717" type="curve" smooth="yes"/>
      <point x="221" y="717" type="line" smooth="yes"/>
      <point x="229" y="717"/>
      <point x="245" y="724"/>
      <point x="249" y="730" type="curve"/>
      <point x="266" y="759" type="line"/>
      <point x="283" y="730" type="line"/>
      <point x="288" y="724"/>
      <point x="304" y="717"/>
      <point x="311" y="717" type="curve" smooth="yes"/>
      <point x="345" y="717" type="line" smooth="yes"/>
      <point x="377" y="717"/>
      <point x="393" y="750"/>
      <point x="373" y="775" type="curve" smooth="yes"/>
      <point x="312" y="849" type="line" smooth="yes"/>
      <point x="307" y="855"/>
      <point x="291" y="863"/>
      <point x="284" y="863" type="curve" smooth="yes"/>
      <point x="248" y="863" type="line" smooth="yes"/>
      <point x="241" y="863"/>
      <point x="225" y="855"/>
      <point x="221" y="849" type="curve"/>
    </contour>
  </outline>
</glyph>
<glyph name="Lacute" format="1">
  <advance width="335"/>
  <unicode hex="0139"/>
  <outline>
    <contour>
      <point x="279" y="63" type="line" smooth="yes"/>
      <point x="279" y="83"/>
      <point x="263" y="99"/>
      <point x="243" y="99" type="curve" smooth="yes"/>
      <point x="94" y="99" type="line"/>
      <point x="94" y="638" type="line" smooth="yes"/>
      <point x="94" y="658"/>
      <point x="78" y="674"/>
      <point x="59" y="674" type="curve" smooth="yes"/>
      <point x="30" y="674" type="line" smooth="yes"/>
      <point x="10" y="674"/>
      <point x="-6" y="658"/>
      <point x="-6" y="638" type="curve" smooth="yes"/>
      <point x="-6" y="36" type="line" smooth="yes"/>
      <point x="-6" y="16"/>
      <point x="10" y="0"/>
      <point x="30" y="0" type="curve" smooth="yes"/>
      <point x="243" y="0" type="line" smooth="yes"/>
      <point x="263" y="0"/>
      <point x="279" y="16"/>
      <point x="279" y="36" type="curve" smooth="yes"/>
    </contour>
    <contour>
      <point x="25" y="717"/>
      <point x="135" y="798"/>
      <point x="135" y="798" type="curve"/>
      <point x="164" y="818"/>
      <point x="150" y="863"/>
      <point x="114" y="863" type="curve" smooth="yes"/>
      <point x="44" y="863"/>
      <point x="-56" y="782"/>
      <point x="-56" y="782" type="curve"/>
      <point x="-85" y="762"/>
      <point x="-72" y="717"/>
      <point x="-36" y="717" type="curve" smooth="yes"/>
    </contour>
  </outline>
</glyph>
<glyph name="Lcaron" format="1">
  <advance width="335"/>
  <unicode hex="013D"/>
  <outline>
    <contour>
      <point x="43" y="759" type="line"/>
      <point x="26" y="779" type="line" smooth="yes"/>
      <point x="21" y="785"/>
      <point x="5" y="793"/>
      <point x="-2" y="793" type="curve" smooth="yes"/>
      <point x="-36" y="793" type="line" smooth="yes"/>
      <point x="-68" y="793"/>
      <point x="-84" y="760"/>
      <point x="-64" y="735" type="curve" smooth="yes"/>
      <point x="-3" y="661" type="line" smooth="yes"/>
      <point x="2" y="655"/>
      <point x="18" y="647"/>
      <point x="25" y="647" type="curve" smooth="yes"/>
      <point x="61" y="647" type="line" smooth="yes"/>
      <point x="68" y="647"/>
      <point x="84" y="655"/>
      <point x="88" y="661" type="curve"/>
      <point x="149" y="735" type="line" smooth="yes"/>
      <point x="170" y="760"/>
      <point x="154" y="793"/>
      <point x="121" y="793" type="curve" smooth="yes"/>
      <point x="87" y="793" type="line" smooth="yes"/>
      <point x="80" y="793"/>
      <point x="64" y="785"/>
      <point x="60" y="779" type="curve"/>
    </contour>
    <contour>
      <point x="283" y="99" type="line" smooth="yes"/>
      <point x="283" y="119"/>
      <point x="267" y="135"/>
      <point x="247" y="135" type="curve" smooth="yes"/>
      <point x="98" y="135" type="line"/>
      <point x="98" y="674" type="line" smooth="yes"/>
      <point x="98" y="694"/>
      <point x="82" y="710"/>
      <point x="63" y="710" type="curve" smooth="yes"/>
      <point x="34" y="710" type="line" smooth="yes"/>
      <point x="14" y="710"/>
      <point x="-2" y="694"/>
      <point x="-2" y="674" type="curve" smooth="yes"/>
      <point x="-2" y="72" type="line" smooth="yes"/>
      <point x="-2" y="52"/>
      <point x="14" y="36"/>
      <point x="34" y="36" type="curve" smooth="yes"/>
      <point x="247" y="36" type="line" smooth="yes"/>
      <point x="267" y="36"/>
      <point x="283" y="52"/>
      <point x="283" y="72" type="curve" smooth="yes"/>
    </contour>
  </outline>
</glyph>
<glyph name="ncaron" format="1">
  <advance width="410"/>
  <unicode hex="0148"/>
  <outline>
    <contour>
      <point x="296" y="0" type="line" smooth="yes"/>
      <point x="316" y="0"/>
      <point x="332" y="16"/>
      <point x="332" y="36" type="curve" smooth="yes"/>
      <point x="332" y="638" type="line" smooth="yes"/>
      <point x="332" y="658"/>
      <point x="316" y="674"/>
      <point x="296" y="674" type="curve" smooth="yes"/>
      <point x="268" y="674" type="line" smooth="yes"/>
      <point x="248" y="674"/>
      <point x="232" y="658"/>
      <point x="232" y="638" type="curve" smooth="yes"/>
      <point x="232" y="308" type="line"/>
      <point x="93" y="652" type="line"/>
      <point x="89" y="663"/>
      <point x="73" y="674"/>
      <point x="60" y="674" type="curve" smooth="yes"/>
      <point x="36" y="674" type="line" smooth="yes"/>
      <point x="17" y="674"/>
      <point x="0" y="658"/>
      <point x="0" y="638" type="curve" smooth="yes"/>
      <point x="0" y="36" type="line" smooth="yes"/>
      <point x="0" y="16"/>
      <point x="17" y="0"/>
      <point x="36" y="0" type="curve" smooth="yes"/>
      <point x="65" y="0" type="line" smooth="yes"/>
      <point x="84" y="0"/>
      <point x="101" y="16"/>
      <point x="101" y="36" type="curve" smooth="yes"/>
      <point x="101" y="366" type="line"/>
      <point x="240" y="22" type="line"/>
      <point x="244" y="11"/>
      <point x="261" y="0"/>
      <point x="273" y="0" type="curve" smooth="yes"/>
    </contour>
    <contour>
      <point x="165" y="819" type="line"/>
      <point x="148" y="849" type="line"/>
      <point x="144" y="855"/>
      <point x="128" y="863"/>
      <point x="120" y="863" type="curve" smooth="yes"/>
      <point x="87" y="863" type="line" smooth="yes"/>
      <point x="54" y="863"/>
      <point x="38" y="830"/>
      <point x="59" y="805" type="curve" smooth="yes"/>
      <point x="120" y="731" type="line"/>
      <point x="124" y="725"/>
      <point x="140" y="717"/>
      <point x="147" y="717" type="curve" smooth="yes"/>
      <point x="183" y="717" type="line" smooth="yes"/>
      <point x="190" y="717"/>
      <point x="206" y="725"/>
      <point x="211" y="731" type="curve" smooth="yes"/>
      <point x="272" y="805" type="line" smooth="yes"/>
      <point x="292" y="830"/>
      <point x="276" y="863"/>
      <point x="244" y="863" type="curve" smooth="yes"/>
      <point x="210" y="863" type="line" smooth="yes"/>
      <point x="203" y="863"/>
      <point x="187" y="855"/>
      <point x="182" y="849" type="curve"/>
    </contour>
  </outline>
</glyph>
<glyph name="Sacute" format="1">
  <advance width="398"/>
  <unicode hex="015A"/>
  <outline>
    <contour>
      <point x="1" y="196" type="line" smooth="yes"/>
      <point x="1" y="65"/>
      <point x="56" y="1"/>
      <point x="166" y="1" type="curve" smooth="yes"/>
      <point x="272" y="1"/>
      <point x="331" y="61"/>
      <point x="331" y="173" type="curve" smooth="yes"/>
      <point x="331" y="270"/>
      <point x="264" y="321"/>
      <point x="198" y="372" type="curve"/>
      <point x="199" y="372" type="line"/>
      <point x="150" y="410"/>
      <point x="101" y="449"/>
      <point x="101" y="500" type="curve" smooth="yes"/>
      <point x="101" y="552"/>
      <point x="124" y="575"/>
      <point x="166" y="575" type="curve" smooth="yes"/>
      <point x="210" y="575"/>
      <point x="231" y="545"/>
      <point x="231" y="479" type="curve" smooth="yes"/>
      <point x="231" y="465" type="line" smooth="yes"/>
      <point x="231" y="445"/>
      <point x="247" y="429"/>
      <point x="267" y="429" type="curve" smooth="yes"/>
      <point x="295" y="429" type="line" smooth="yes"/>
      <point x="315" y="429"/>
      <point x="331" y="445"/>
      <point x="331" y="465" type="curve" smooth="yes"/>
      <point x="331" y="479" type="line" smooth="yes"/>
      <point x="331" y="606"/>
      <point x="274" y="675"/>
      <point x="166" y="675" type="curve" smooth="yes"/>
      <point x="60" y="675"/>
      <point x="1" y="610"/>
      <point x="1" y="497" type="curve" smooth="yes"/>
      <point x="1" y="398"/>
      <point x="70" y="344"/>
      <point x="136" y="292" type="curve"/>
      <point x="136" y="293" type="line"/>
      <point x="185" y="255"/>
      <point x="231" y="218"/>
      <point x="231" y="171" type="curve" smooth="yes"/>
      <point x="231" y="118"/>
      <point x="208" y="100"/>
      <point x="166" y="100" type="curve" smooth="yes"/>
      <point x="152" y="100"/>
      <point x="135" y="102"/>
      <point x="124" y="113" type="curve"/>
      <point x="110" y="125"/>
      <point x="101" y="148"/>
      <point x="101" y="196" type="curve" smooth="yes"/>
      <point x="101" y="209" type="line" smooth="yes"/>
      <point x="101" y="229"/>
      <point x="84" y="245"/>
      <point x="65" y="245" type="curve" smooth="yes"/>
      <point x="37" y="245" type="line" smooth="yes"/>
      <point x="17" y="245"/>
      <point x="1" y="229"/>
      <point x="1" y="209" type="curve" smooth="yes"/>
    </contour>
    <contour>
      <point x="147" y="717"/>
      <point x="257" y="798"/>
      <point x="257" y="798" type="curve"/>
      <point x="286" y="818"/>
      <point x="272" y="863"/>
      <point x="236" y="863" type="curve" smooth="yes"/>
      <point x="166" y="863"/>
      <point x="66" y="782"/>
      <point x="66" y="782" type="curve"/>
      <point x="37" y="762"/>
      <point x="50" y="717"/>
      <point x="86" y="717" type="curve" smooth="yes"/>
    </contour>
  </outline>
</glyph>
<glyph name="Scaron" format="1">
  <advance width="398"/>
  <unicode hex="0160"/>
  <outline>
    <contour>
      <point x="1" y="196" type="line" smooth="yes"/>
      <point x="1" y="65"/>
      <point x="56" y="1"/>
      <point x="166" y="1" type="curve" smooth="yes"/>
      <point x="272" y="1"/>
      <point x="331" y="61"/>
      <point x="331" y="173" type="curve" smooth="yes"/>
      <point x="331" y="270"/>
      <point x="264" y="321"/>
      <point x="198" y="372" type="curve"/>
      <point x="199" y="372" type="line"/>
      <point x="150" y="410"/>
      <point x="101" y="449"/>
      <point x="101" y="500" type="curve" smooth="yes"/>
      <point x="101" y="552"/>
      <point x="124" y="575"/>
      <point x="166" y="575" type="curve" smooth="yes"/>
      <point x="210" y="575"/>
      <point x="231" y="545"/>
      <point x="231" y="479" type="curve" smooth="yes"/>
      <point x="231" y="465" type="line" smooth="yes"/>
      <point x="231" y="445"/>
      <point x="247" y="429"/>
      <point x="267" y="429" type="curve" smooth="yes"/>
      <point x="295" y="429" type="line" smooth="yes"/>
      <point x="315" y="429"/>
      <point x="331" y="445"/>
      <point x="331" y="465" type="curve" smooth="yes"/>
      <point x="331" y="479" type="line" smooth="yes"/>
      <point x="331" y="606"/>
      <point x="274" y="675"/>
      <point x="166" y="675" type="curve" smooth="yes"/>
      <point x="60" y="675"/>
      <point x="1" y="610"/>
      <point x="1" y="497" type="curve" smooth="yes"/>
      <point x="1" y="398"/>
      <point x="70" y="344"/>
      <point x="136" y="292" type="curve"/>
      <point x="136" y="293" type="line"/>
      <point x="185" y="255"/>
      <point x="231" y="218"/>
      <point x="231" y="171" type="curve" smooth="yes"/>
      <point x="231" y="118"/>
      <point x="208" y="100"/>
      <point x="166" y="100" type="curve" smooth="yes"/>
      <point x="152" y="100"/>
      <point x="135" y="102"/>
      <point x="124" y="113" type="curve"/>
      <point x="110" y="125"/>
      <point x="101" y="148"/>
      <point x="101" y="196" type="curve" smooth="yes"/>
      <point x="101" y="209" type="line" smooth="yes"/>
      <point x="101" y="229"/>
      <point x="84" y="245"/>
      <point x="65" y="245" type="curve" smooth="yes"/>
      <point x="37" y="245" type="line" smooth="yes"/>
      <point x="17" y="245"/>
      <point x="1" y="229"/>
      <point x="1" y="209" type="curve" smooth="yes"/>
    </contour>
    <contour>
      <point x="168" y="819" type="line"/>
      <point x="151" y="849" type="line"/>
      <point x="147" y="855"/>
      <point x="131" y="863"/>
      <point x="123" y="863" type="curve" smooth="yes"/>
      <point x="90" y="863" type="line" smooth="yes"/>
      <point x="57" y="863"/>
      <point x="41" y="830"/>
      <point x="62" y="805" type="curve" smooth="yes"/>
      <point x="123" y="731" type="line"/>
      <point x="127" y="725"/>
      <point x="143" y="717"/>
      <point x="150" y="717" type="curve" smooth="yes"/>
      <point x="186" y="717" type="line" smooth="yes"/>
      <point x="193" y="717"/>
      <point x="209" y="725"/>
      <point x="214" y="731" type="curve" smooth="yes"/>
      <point x="275" y="805" type="line" smooth="yes"/>
      <point x="295" y="830"/>
      <point x="279" y="863"/>
      <point x="247" y="863" type="curve" smooth="yes"/>
      <point x="213" y="863" type="line" smooth="yes"/>
      <point x="206" y="863"/>
      <point x="190" y="855"/>
      <point x="185" y="849" type="curve"/>
    </contour>
  </outline>
</glyph>
<glyph name="Utilde" format="1">
  <advance width="409"/>
  <unicode hex="0168"/>
  <outline>
    <contour>
      <point x="-6" y="184" type="line" smooth="yes"/>
      <point x="-6" y="78"/>
      <point x="38" y="1"/>
      <point x="158" y="1" type="curve" smooth="yes"/>
      <point x="274" y="1"/>
      <point x="322" y="72"/>
      <point x="322" y="184" type="curve" smooth="yes"/>
      <point x="322" y="639" type="line" smooth="yes"/>
      <point x="322" y="659"/>
      <point x="306" y="675"/>
      <point x="286" y="675" type="curve" smooth="yes"/>
      <point x="258" y="675" type="line" smooth="yes"/>
      <point x="239" y="675"/>
      <point x="223" y="659"/>
      <point x="223" y="639" type="curve" smooth="yes"/>
      <point x="223" y="184" type="line" smooth="yes"/>
      <point x="223" y="136"/>
      <point x="209" y="100"/>
      <point x="158" y="100" type="curve" smooth="yes"/>
      <point x="109" y="100"/>
      <point x="93" y="131"/>
      <point x="93" y="184" type="curve" smooth="yes"/>
      <point x="93" y="639" type="line" smooth="yes"/>
      <point x="93" y="659"/>
      <point x="77" y="675"/>
      <point x="57" y="675" type="curve" smooth="yes"/>
      <point x="29" y="675" type="line" smooth="yes"/>
      <point x="10" y="675"/>
      <point x="-6" y="659"/>
      <point x="-6" y="639" type="curve" smooth="yes"/>
    </contour>
    <contour>
      <point x="71" y="715" type="line" smooth="yes"/>
      <point x="80" y="715"/>
      <point x="96" y="724"/>
      <point x="100" y="731" type="curve"/>
      <point x="105" y="738"/>
      <point x="108" y="740"/>
      <point x="111" y="740" type="curve" smooth="yes"/>
      <point x="115" y="740"/>
      <point x="121" y="738"/>
      <point x="124" y="733" type="curve"/>
      <point x="141" y="715"/>
      <point x="172" y="702"/>
      <point x="204" y="702" type="curve" smooth="yes"/>
      <point x="242" y="702"/>
      <point x="284" y="720"/>
      <point x="309" y="772" type="curve" smooth="yes"/>
      <point x="320" y="797"/>
      <point x="304" y="823"/>
      <point x="276" y="823" type="curve" smooth="yes"/>
      <point x="240" y="823" type="line" smooth="yes"/>
      <point x="227" y="823"/>
      <point x="211" y="811"/>
      <point x="207" y="799" type="curve"/>
      <point x="207" y="800" type="line"/>
      <point x="199" y="800"/>
      <point x="191" y="806"/>
      <point x="184" y="811" type="curve"/>
      <point x="167" y="830"/>
      <point x="140" y="842"/>
      <point x="111" y="842" type="curve" smooth="yes"/>
      <point x="73" y="842"/>
      <point x="30" y="822"/>
      <point x="2" y="767" type="curve" smooth="yes"/>
      <point x="-11" y="741"/>
      <point x="6" y="715"/>
      <point x="34" y="715" type="curve" smooth="yes"/>
    </contour>
  </outline>
</glyph>
<glyph name="Ubreve" format="1">
  <advance width="409"/>
  <unicode hex="016C"/>
  <outline>
    <contour>
      <point x="-6" y="184" type="line" smooth="yes"/>
      <point x="-6" y="78"/>
      <point x="38" y="1"/>
      <point x="158" y="1" type="curve" smooth="yes"/>
      <point x="274" y="1"/>
      <point x="322" y="72"/>
      <point x="322" y="184" type="curve" smooth="yes"/>
      <point x="322" y="639" type="line" smooth="yes"/>
      <point x="322" y="659"/>
      <point x="306" y="675"/>
      <point x="286" y="675" type="curve" smooth="yes"/>
      <point x="258" y="675" type="line" smooth="yes"/>
      <point x="239" y="675"/>
      <point x="223" y="659"/>
      <point x="223" y="639" type="curve" smooth="yes"/>
      <point x="223" y="184" type="line" smooth="yes"/>
      <point x="223" y="136"/>
      <point x="209" y="100"/>
      <point x="158" y="100" type="curve" smooth="yes"/>
      <point x="109" y="100"/>
      <point x="93" y="131"/>
      <point x="93" y="184" type="curve" smooth="yes"/>
      <point x="93" y="639" type="line" smooth="yes"/>
      <point x="93" y="659"/>
      <point x="77" y="675"/>
      <point x="57" y="675" type="curve" smooth="yes"/>
      <point x="29" y="675" type="line" smooth="yes"/>
      <point x="10" y="675"/>
      <point x="-6" y="659"/>
      <point x="-6" y="639" type="curve" smooth="yes"/>
    </contour>
    <contour>
      <point x="152" y="816" type="line" smooth="yes"/>
      <point x="136" y="816"/>
      <point x="125" y="852"/>
      <point x="105" y="852" type="curve" smooth="yes"/>
      <point x="53" y="852"/>
      <point x="37" y="836"/>
      <point x="37" y="816" type="curve" smooth="yes"/>
      <point x="37" y="725"/>
      <point x="128" y="717"/>
      <point x="155" y="717" type="curve" smooth="yes"/>
      <point x="182" y="717"/>
      <point x="273" y="725"/>
      <point x="273" y="816" type="curve" smooth="yes"/>
      <point x="273" y="836"/>
      <point x="257" y="852"/>
      <point x="205" y="852" type="curve" smooth="yes"/>
      <point x="185" y="852"/>
      <point x="179" y="816"/>
      <point x="159" y="816" type="curve" smooth="yes"/>
    </contour>
  </outline>
</glyph>
<glyph name="dotaccent" format="1">
  <advance width="82"/>
  <unicode hex="02D9"/>
  <outline>
    <contour>
      <point x="85" y="784" type="line" smooth="yes"/>
      <point x="85" y="804"/>
      <point x="69" y="820"/>
      <point x="49" y="820" type="curve" smooth="yes"/>
      <point x="21" y="820" type="line" smooth="yes"/>
      <point x="1" y="820"/>
      <point x="-15" y="804"/>
      <point x="-15" y="784" type="curve" smooth="yes"/>
      <point x="-15" y="746" type="line" smooth="yes"/>
      <point x="-15" y="726"/>
      <point x="1" y="710"/>
      <point x="21" y="710" type="curve" smooth="yes"/>
      <point x="49" y="710" type="line" smooth="yes"/>
      <point x="69" y="710"/>
      <point x="85" y="726"/>
      <point x="85" y="746" type="curve" smooth="yes"/>
    </contour>
  </outline>
</glyph>
<glyph name="tilde" format="1">
  <advance width="319"/>
  <unicode hex="02DC"/>
  <outline>
    <contour>
      <point x="65" y="715" type="line" smooth="yes"/>
      <point x="74" y="715"/>
      <point x="90" y="724"/>
      <point x="94" y="731" type="curve"/>
      <point x="99" y="738"/>
      <point x="102" y="740"/>
      <point x="105" y="740" type="curve" smooth="yes"/>
      <point x="109" y="740"/>
      <point x="115" y="738"/>
      <point x="118" y="733" type="curve"/>
      <point x="135" y="715"/>
      <point x="166" y="702"/>
      <point x="198" y="702" type="curve" smooth="yes"/>
      <point x="236" y="702"/>
      <point x="278" y="720"/>
      <point x="303" y="772" type="curve" smooth="yes"/>
      <point x="314" y="797"/>
      <point x="298" y="823"/>
      <point x="270" y="823" type="curve" smooth="yes"/>
      <point x="234" y="823" type="line" smooth="yes"/>
      <point x="221" y="823"/>
      <point x="205" y="811"/>
      <point x="201" y="799" type="curve"/>
      <point x="201" y="800" type="line"/>
      <point x="193" y="800"/>
      <point x="185" y="806"/>
      <point x="178" y="811" type="curve"/>
      <point x="161" y="830"/>
      <point x="134" y="842"/>
      <point x="105" y="842" type="curve" smooth="yes"/>
      <point x="67" y="842"/>
      <point x="24" y="822"/>
      <point x="-4" y="767" type="curve" smooth="yes"/>
      <point x="-17" y="741"/>
      <point x="0" y="715"/>
      <point x="28" y="715" type="curve" smooth="yes"/>
    </contour>
  </outline>
</glyph>
<glyph name="ygrave" format="1">
  <advance width="406"/>
  <unicode hex="1EF3"/>
  <outline>
    <contour>
      <point x="84" y="653" type="line" smooth="yes"/>
      <point x="80" y="663"/>
      <point x="63" y="674"/>
      <point x="51" y="674" type="curve" smooth="yes"/>
      <point x="19" y="674" type="line" smooth="yes"/>
      <point x="-9" y="674"/>
      <point x="-25" y="649"/>
      <point x="-14" y="624" type="curve" smooth="yes"/>
      <point x="29" y="524"/>
      <point x="73" y="425"/>
      <point x="116" y="325" type="curve"/>
      <point x="116" y="36" type="line" smooth="yes"/>
      <point x="116" y="16"/>
      <point x="132" y="0"/>
      <point x="151" y="0" type="curve" smooth="yes"/>
      <point x="179" y="0" type="line" smooth="yes"/>
      <point x="199" y="0"/>
      <point x="215" y="16"/>
      <point x="215" y="36" type="curve" smooth="yes"/>
      <point x="215" y="324" type="line"/>
      <point x="344" y="624" type="line" smooth="yes"/>
      <point x="354" y="649"/>
      <point x="338" y="674"/>
      <point x="311" y="674" type="curve" smooth="yes"/>
      <point x="278" y="674" type="line" smooth="yes"/>
      <point x="267" y="674"/>
      <point x="250" y="663"/>
      <point x="245" y="653" type="curve"/>
      <point x="165" y="469" type="line"/>
    </contour>
    <contour>
      <point x="290" y="717"/>
      <point x="303" y="762"/>
      <point x="274" y="782" type="curve"/>
      <point x="274" y="782"/>
      <point x="174" y="863"/>
      <point x="104" y="863" type="curve" smooth="yes"/>
      <point x="68" y="863"/>
      <point x="54" y="818"/>
      <point x="83" y="798" type="curve"/>
      <point x="83" y="798"/>
      <point x="193" y="717"/>
      <point x="254" y="717" type="curve" smooth="yes"/>
    </contour>
  </outline>
</glyph>
<glyph name="fraction" format="1">
  <advance width="260"/>
  <unicode hex="2044"/>
  <outline>
    <contour>
      <point x="14" y="0" type="line" smooth="yes"/>
      <point x="26" y="0"/>
      <point x="43" y="11"/>
      <point x="47" y="22" type="curve" smooth="yes"/>
      <point x="288" y="625" type="line" smooth="yes"/>
      <point x="298" y="650"/>
      <point x="282" y="674"/>
      <point x="255" y="674" type="curve" smooth="yes"/>
      <point x="225" y="674" type="line" smooth="yes"/>
      <point x="212" y="674"/>
      <point x="196" y="663"/>
      <point x="192" y="652" type="curve" smooth="yes"/>
      <point x="-50" y="49" type="line"/>
      <point x="-59" y="24"/>
      <point x="-43" y="0"/>
      <point x="-16" y="0" type="curve" smooth="yes"/>
    </contour>
  </outline>
</glyph>
<glyph name="commaaccent" format="1">
  <advance width="260"/>
  <unicode hex="F6C3"/>
  <outline>
    <contour>
      <point x="169" y="-76" type="line" smooth="yes"/>
      <point x="169" y="-57"/>
      <point x="152" y="-41"/>
      <point x="133" y="-41" type="curve" smooth="yes"/>
      <point x="105" y="-41" type="line" smooth="yes"/>
      <point x="85" y="-41"/>
      <point x="69" y="-57"/>
      <point x="69" y="-76" type="curve" smooth="yes"/>
      <point x="69" y="-150" type="line" smooth="yes"/>
      <point x="69" y="-170"/>
      <point x="85" y="-186"/>
      <point x="105" y="-186" type="curve" smooth="yes"/>
      <point x="133" y="-186" type="line" smooth="yes"/>
      <point x="152" y="-186"/>
      <point x="169" y="-170"/>
      <point x="169" y="-150" type="curve" smooth="yes"/>
    </contour>
  </outline>
</glyph>
<glyph name="Dieresis" format="1">
  <advance width="229"/>
  <unicode hex="F6CB"/>
  <outline>
    <contour>
      <point x="90" y="791" type="line" smooth="yes"/>
      <point x="90" y="811"/>
      <point x="74" y="827"/>
      <point x="54" y="827" type="curve" smooth="yes"/>
      <point x="26" y="827" type="line" smooth="yes"/>
      <point x="6" y="827"/>
      <point x="-10" y="811"/>
      <point x="-10" y="791" type="curve" smooth="yes"/>
      <point x="-10" y="753" type="line" smooth="yes"/>
      <point x="-10" y="733"/>
      <point x="6" y="717"/>
      <point x="26" y="717" type="curve" smooth="yes"/>
      <point x="54" y="717" type="line" smooth="yes"/>
      <point x="74" y="717"/>
      <point x="90" y="733"/>
      <point x="90" y="753" type="curve" smooth="yes"/>
    </contour>
    <contour>
      <point x="221" y="791" type="line" smooth="yes"/>
      <point x="221" y="811"/>
      <point x="205" y="827"/>
      <point x="186" y="827" type="curve" smooth="yes"/>
      <point x="157" y="827" type="line" smooth="yes"/>
      <point x="137" y="827"/>
      <point x="121" y="811"/>
      <point x="121" y="791" type="curve" smooth="yes"/>
      <point x="121" y="753" type="line" smooth="yes"/>
      <point x="121" y="733"/>
      <point x="137" y="717"/>
      <point x="157" y="717" type="curve" smooth="yes"/>
      <point x="186" y="717" type="line" smooth="yes"/>
      <point x="205" y="717"/>
      <point x="221" y="733"/>
      <point x="221" y="753" type="curve" smooth="yes"/>
    </contour>
  </outline>
</glyph>
<glyph name="Cedilla" format="1">
  <advance width="201"/>
  <outline>
    <contour>
      <point x="111" y="-3" type="line" smooth="yes"/>
      <point x="111" y="10"/>
      <point x="101" y="20"/>
      <point x="88" y="20" type="curve" smooth="yes"/>
      <point x="56" y="20" type="line" smooth="yes"/>
      <point x="42" y="20"/>
      <point x="33" y="10"/>
      <point x="33" y="-3" type="curve" smooth="yes"/>
      <point x="33" y="-95" type="line" smooth="yes"/>
      <point x="33" y="-107"/>
      <point x="42" y="-118"/>
      <point x="56" y="-118" type="curve" smooth="yes"/>
      <point x="64" y="-118" type="line" smooth="yes"/>
      <point x="94" y="-118"/>
      <point x="119" y="-118"/>
      <point x="123" y="-120" type="curve"/>
      <point x="119" y="-129"/>
      <point x="100" y="-134"/>
      <point x="82" y="-134" type="curve" smooth="yes"/>
      <point x="48" y="-134"/>
      <point x="20" y="-125"/>
      <point x="20" y="-125" type="curve"/>
      <point x="4" y="-122"/>
      <point x="-9" y="-131"/>
      <point x="-9" y="-147" type="curve" smooth="yes"/>
      <point x="-9" y="-189"/>
      <point x="33" y="-210"/>
      <point x="82" y="-210" type="curve" smooth="yes"/>
      <point x="138" y="-210"/>
      <point x="203" y="-192"/>
      <point x="203" y="-123" type="curve" smooth="yes"/>
      <point x="203" y="-44"/>
      <point x="135" y="-41"/>
      <point x="111" y="-41" type="curve"/>
    </contour>
  </outline>
</glyph>
<glyph name="commaaccent.cap" format="1">
  <advance width="260"/>
  <outline>
    <contour>
      <point x="165" y="-76" type="line" smooth="yes"/>
      <point x="165" y="-57"/>
      <point x="150" y="-42"/>
      <point x="131" y="-42" type="curve" smooth="yes"/>
      <point x="104" y="-42" type="line" smooth="yes"/>
      <point x="85" y="-42"/>
      <point x="69" y="-57"/>
      <point x="69" y="-76" type="curve" smooth="yes"/>
      <point x="69" y="-148" type="line" smooth="yes"/>
      <point x="69" y="-167"/>
      <point x="85" y="-182"/>
      <point x="104" y="-182" type="curve" smooth="yes"/>
      <point x="131" y="-182" type="line" smooth="yes"/>
      <point x="150" y="-182"/>
      <point x="165" y="-167"/>
      <point x="165" y="-148" type="curve" smooth="yes"/>
    </contour>
  </outline>
</glyph>
